<svg
                width="13"
                height="13"
                viewBox="0 0 13 13"
                fill="none"
                xmlns="http://www.w3.org/2000/svg"
              >
                <path
                  fill-rule="evenodd"
                  clip-rule="evenodd"
                  d="M0.242396 2.36907C0.42974 1.28144 1.29425 0.481925 2.38534 0.315908C3.43079 0.156838 4.86497 0 6.456 0C8.04702 0 9.48121 0.156838 10.5267 0.315908C11.6177 0.481925 12.4823 1.28143 12.6696 2.36907C12.8002 3.1271 12.912 4.09004 12.912 5.1648C12.912 6.23956 12.8002 7.20249 12.6696 7.96052C12.4823 9.04816 11.6177 9.84767 10.5267 10.0137C9.57024 10.1592 8.28847 10.3029 6.8589 10.3263L2.91083 12.6592C2.48047 12.9135 1.9368 12.6033 1.9368 12.1034V9.90605C1.06302 9.6155 0.403215 8.89417 0.242396 7.96052C0.111825 7.20249 0 6.23956 0 5.1648C0 4.09004 0.111825 3.1271 0.242396 2.36907ZM2.5824 3.8736C2.5824 3.51704 2.87144 3.228 3.228 3.228H9.684C10.0406 3.228 10.3296 3.51704 10.3296 3.8736C10.3296 4.23015 10.0406 4.5192 9.684 4.5192H3.228C2.87144 4.5192 2.5824 4.23015 2.5824 3.8736ZM2.5824 6.456C2.5824 6.09944 2.87144 5.8104 3.228 5.8104H5.8104C6.16695 5.8104 6.456 6.09944 6.456 6.456C6.456 6.81255 6.16695 7.1016 5.8104 7.1016H3.228C2.87144 7.1016 2.5824 6.81255 2.5824 6.456Z"
                  fill="#A9ABAD"
                />
              </svg>