<svg width="22" height="23" viewBox="0 0 22 23" fill="none" xmlns="http://www.w3.org/2000/svg">
<path d="M16.5 7.66663C16.5 6.14163 15.9205 4.6791 14.8891 3.60076C13.8576 2.52243 12.4587 1.91663 11 1.91663C9.54131 1.91663 8.14236 2.52243 7.11091 3.60076C6.07946 4.6791 5.5 6.14163 5.5 7.66663C5.5 14.375 2.75 16.2916 2.75 16.2916H19.25C19.25 16.2916 16.5 14.375 16.5 7.66663Z" stroke="white" stroke-linecap="round" stroke-linejoin="round"/>
<path d="M12.5857 20.125C12.4246 20.4154 12.1933 20.6565 11.9149 20.8241C11.6366 20.9917 11.3211 21.0799 10.9999 21.0799C10.6787 21.0799 10.3632 20.9917 10.0849 20.8241C9.80654 20.6565 9.57522 20.4154 9.41406 20.125" stroke="white" stroke-linecap="round" stroke-linejoin="round"/>
</svg>
