<svg width="23" height="23" viewBox="0 0 23 23" fill="none" xmlns="http://www.w3.org/2000/svg">
<g clip-path="url(#clip0_102_2849)">
<path d="M11.5 14.375C13.0878 14.375 14.375 13.0878 14.375 11.5C14.375 9.91218 13.0878 8.625 11.5 8.625C9.91218 8.625 8.625 9.91218 8.625 11.5C8.625 13.0878 9.91218 14.375 11.5 14.375Z" stroke="white" stroke-linecap="round" stroke-linejoin="round"/>
<path d="M18.5916 14.375C18.464 14.6641 18.426 14.9847 18.4823 15.2956C18.5387 15.6065 18.6869 15.8933 18.9078 16.1192L18.9653 16.1767C19.1435 16.3547 19.2849 16.5661 19.3814 16.7988C19.4778 17.0315 19.5275 17.2809 19.5275 17.5327C19.5275 17.7846 19.4778 18.034 19.3814 18.2667C19.2849 18.4994 19.1435 18.7108 18.9653 18.8888C18.7873 19.067 18.5759 19.2084 18.3433 19.3048C18.1106 19.4013 17.8612 19.4509 17.6093 19.4509C17.3574 19.4509 17.108 19.4013 16.8753 19.3048C16.6426 19.2084 16.4313 19.067 16.2533 18.8888L16.1958 18.8313C15.9699 18.6104 15.683 18.4622 15.3721 18.4058C15.0613 18.3494 14.7406 18.3875 14.4516 18.515C14.1681 18.6365 13.9264 18.8382 13.7561 19.0953C13.5859 19.3525 13.4945 19.6537 13.4933 19.9621V20.125C13.4933 20.6334 13.2913 21.1209 12.9319 21.4803C12.5724 21.8398 12.0849 22.0417 11.5766 22.0417C11.0683 22.0417 10.5807 21.8398 10.2213 21.4803C9.86185 21.1209 9.65992 20.6334 9.65992 20.125V20.0388C9.6525 19.7216 9.54982 19.414 9.36524 19.1559C9.18066 18.8978 8.92271 18.7012 8.62492 18.5917C8.33587 18.4641 8.01523 18.4261 7.70435 18.4825C7.39348 18.5388 7.10661 18.687 6.88075 18.908L6.82325 18.9655C6.64525 19.1437 6.43386 19.285 6.20118 19.3815C5.9685 19.4779 5.71909 19.5276 5.46721 19.5276C5.21533 19.5276 4.96592 19.4779 4.73324 19.3815C4.50056 19.285 4.28918 19.1437 4.11117 18.9655C3.93296 18.7875 3.79159 18.5761 3.69514 18.3434C3.59868 18.1107 3.54904 17.8613 3.54904 17.6094C3.54904 17.3575 3.59868 17.1081 3.69514 16.8754C3.79159 16.6428 3.93296 16.4314 4.11117 16.2534L4.16867 16.1959C4.3896 15.97 4.5378 15.6832 4.59417 15.3723C4.65054 15.0614 4.61249 14.7408 4.48492 14.4517C4.36344 14.1683 4.16173 13.9265 3.90461 13.7563C3.6475 13.586 3.34621 13.4946 3.03784 13.4934H2.87492C2.36659 13.4934 1.87908 13.2914 1.51963 12.932C1.16019 12.5726 0.958252 12.085 0.958252 11.5767C0.958252 11.0684 1.16019 10.5809 1.51963 10.2214C1.87908 9.86198 2.36659 9.66004 2.87492 9.66004H2.96117C3.27837 9.65262 3.58601 9.54995 3.84408 9.36536C4.10215 9.18078 4.29873 8.92283 4.40825 8.62504C4.53582 8.33599 4.57387 8.01536 4.51751 7.70448C4.46114 7.3936 4.31293 7.10673 4.092 6.88087L4.0345 6.82337C3.8563 6.64537 3.71493 6.43398 3.61847 6.2013C3.52202 5.96862 3.47237 5.71921 3.47237 5.46733C3.47237 5.21545 3.52202 4.96604 3.61847 4.73336C3.71493 4.50068 3.8563 4.2893 4.0345 4.11129C4.21251 3.93309 4.4239 3.79171 4.65657 3.69526C4.88925 3.5988 5.13866 3.54916 5.39054 3.54916C5.64242 3.54916 5.89183 3.5988 6.12451 3.69526C6.35719 3.79171 6.56858 3.93309 6.74659 4.11129L6.80409 4.16879C7.02994 4.38972 7.31681 4.53793 7.62769 4.5943C7.93857 4.65066 8.2592 4.61261 8.54825 4.48504H8.62492C8.90836 4.36356 9.1501 4.16185 9.32037 3.90474C9.49065 3.64763 9.58202 3.34634 9.58325 3.03796V2.87504C9.58325 2.36671 9.78519 1.8792 10.1446 1.51975C10.5041 1.16031 10.9916 0.958374 11.4999 0.958374C12.0083 0.958374 12.4958 1.16031 12.8552 1.51975C13.2147 1.8792 13.4166 2.36671 13.4166 2.87504V2.96129C13.4178 3.26967 13.5092 3.57096 13.6795 3.82807C13.8497 4.08518 14.0915 4.28689 14.3749 4.40837C14.664 4.53594 14.9846 4.574 15.2955 4.51763C15.6064 4.46126 15.8932 4.31306 16.1191 4.09212L16.1766 4.03462C16.3546 3.85642 16.566 3.71505 16.7987 3.61859C17.0313 3.52214 17.2807 3.47249 17.5326 3.47249C17.7845 3.47249 18.0339 3.52214 18.2666 3.61859C18.4993 3.71505 18.7107 3.85642 18.8887 4.03462C19.0669 4.21263 19.2082 4.42402 19.3047 4.6567C19.4012 4.88938 19.4508 5.13879 19.4508 5.39067C19.4508 5.64255 19.4012 5.89196 19.3047 6.12463C19.2082 6.35731 19.0669 6.5687 18.8887 6.74671L18.8312 6.80421C18.6102 7.03007 18.462 7.31693 18.4057 7.62781C18.3493 7.93869 18.3874 8.25933 18.5149 8.54837V8.62504C18.6364 8.90849 18.8381 9.15022 19.0952 9.3205C19.3523 9.49077 19.6536 9.58214 19.962 9.58337H20.1249C20.6333 9.58337 21.1208 9.78531 21.4802 10.1448C21.8397 10.5042 22.0416 10.9917 22.0416 11.5C22.0416 12.0084 21.8397 12.4959 21.4802 12.8553C21.1208 13.2148 20.6333 13.4167 20.1249 13.4167H20.0387C19.7303 13.4179 19.429 13.5093 19.1719 13.6796C18.9148 13.8499 18.7131 14.0916 18.5916 14.375V14.375Z" stroke="white" stroke-linecap="round" stroke-linejoin="round"/>
</g>
<defs>
<clipPath id="clip0_102_2849">
<rect width="23" height="23" fill="white"/>
</clipPath>
</defs>
</svg>
