<svg width="23" height="20" viewBox="0 0 23 20" fill="none" xmlns="http://www.w3.org/2000/svg">
<path fill-rule="evenodd" clip-rule="evenodd" d="M2.91797 10.371C2.91797 6.43257 6.78305 2.9574 11.9308 2.9574C17.0786 2.9574 20.9436 6.43257 20.9436 10.371C20.9436 14.3095 17.0786 17.7846 11.9308 17.7846C6.78305 17.7846 2.91797 14.3095 2.91797 10.371ZM11.9308 0.957397C6.01868 0.957397 0.917969 5.01604 0.917969 10.371C0.917969 15.726 6.01868 19.7846 11.9308 19.7846C17.8429 19.7846 22.9436 15.726 22.9436 10.371C22.9436 5.01604 17.8429 0.957397 11.9308 0.957397ZM8.44161 11.964C8.28878 11.4333 7.73466 11.1269 7.20394 11.2798C6.67322 11.4326 6.36688 11.9867 6.51971 12.5174C6.8273 13.5856 7.56839 14.4851 8.55073 15.1042C9.53208 15.7226 10.7238 16.0453 11.9308 16.0453C13.1378 16.0453 14.3295 15.7226 15.3109 15.1042C16.2932 14.4851 17.0343 13.5856 17.3419 12.5174C17.4947 11.9867 17.1884 11.4326 16.6577 11.2798C16.127 11.1269 15.5728 11.4333 15.42 11.964C15.2689 12.4889 14.8793 13.0121 14.2446 13.4122C13.6088 13.8128 12.7928 14.0453 11.9308 14.0453C11.0688 14.0453 10.2528 13.8128 9.61706 13.4122C8.98228 13.0121 8.59276 12.4889 8.44161 11.964ZM9.91684 9.47868C9.377 9.59527 8.84486 9.25217 8.72827 8.71233C8.71629 8.65685 8.68876 8.61716 8.6616 8.59434C8.63553 8.57243 8.61117 8.56637 8.59319 8.56637C8.57521 8.56637 8.55086 8.57243 8.52478 8.59434C8.49763 8.61716 8.4701 8.65685 8.45812 8.71233C8.34153 9.25217 7.80939 9.59527 7.26955 9.47868C6.72971 9.36209 6.3866 8.82995 6.50319 8.29011C6.6059 7.81457 6.86102 7.38003 7.23814 7.06314C7.61635 6.74534 8.09391 6.56637 8.59319 6.56637C9.09248 6.56637 9.57003 6.74534 9.94824 7.06314C10.3254 7.38003 10.5805 7.81457 10.6832 8.29011C10.7998 8.82995 10.4567 9.36209 9.91684 9.47868ZM15.4035 8.71233C15.5201 9.25217 16.0522 9.59527 16.5921 9.47868C17.1319 9.36209 17.475 8.82995 17.3584 8.29011C17.2557 7.81457 17.0006 7.38003 16.6235 7.06314C16.2453 6.74534 15.7677 6.56637 15.2684 6.56637C14.7691 6.56637 14.2916 6.74534 13.9134 7.06314C13.5362 7.38003 13.2811 7.81457 13.1784 8.29011C13.0618 8.82995 13.4049 9.36209 13.9448 9.47868C14.4846 9.59527 15.0168 9.25217 15.1333 8.71233C15.1453 8.65685 15.1729 8.61716 15.2 8.59434C15.2261 8.57243 15.2504 8.56637 15.2684 8.56637C15.2864 8.56637 15.3108 8.57243 15.3368 8.59434C15.364 8.61716 15.3915 8.65685 15.4035 8.71233Z" fill="#777E91"/>
</svg>
