<svg width="23" height="19" viewBox="0 0 23 19" fill="none" xmlns="http://www.w3.org/2000/svg">
<path fill-rule="evenodd" clip-rule="evenodd" d="M11.4293 1.89234C9.25739 1.89234 7.25527 2.04285 5.64826 2.22119C4.20198 2.3817 3.1114 3.29809 2.92039 4.51337C2.70815 5.86372 2.52903 7.54608 2.52903 9.37111C2.52903 11.1962 2.70815 12.8785 2.92039 14.2289C3.1114 15.4441 4.20198 16.3605 5.64826 16.521C7.25527 16.6994 9.25739 16.8499 11.4293 16.8499C13.6013 16.8499 15.6034 16.6994 17.2104 16.521C18.6567 16.3605 19.7472 15.4441 19.9383 14.2289C20.1505 12.8785 20.3296 11.1962 20.3296 9.37111C20.3296 7.54608 20.1505 5.86372 19.9383 4.51337C19.7472 3.29809 18.6567 2.3817 17.2104 2.22119C15.6034 2.04285 13.6013 1.89234 11.4293 1.89234ZM5.35692 0.367596C2.9129 0.638824 1.03726 2.2149 0.714473 4.26857C0.492568 5.68041 0.303955 7.44652 0.303955 9.37111C0.303955 11.2957 0.492568 13.0618 0.714473 14.4737C1.03726 16.5273 2.9129 18.1034 5.35692 18.3746C7.03712 18.5611 9.13892 18.7196 11.4293 18.7196C13.7197 18.7196 15.8215 18.5611 17.5017 18.3746C19.9457 18.1034 21.8214 16.5273 22.1442 14.4737C22.3661 13.0618 22.5547 11.2957 22.5547 9.37111C22.5547 7.44652 22.3661 5.68042 22.1442 4.26857C21.8214 2.2149 19.9457 0.638825 17.5017 0.367596C15.8215 0.181132 13.7197 0.022644 11.4293 0.022644C9.13892 0.022644 7.03712 0.181132 5.35692 0.367596Z" fill="#777E91"/>
<path d="M8.09185 8.43623C9.32072 8.43623 10.3169 7.59914 10.3169 6.56653C10.3169 5.53393 9.32072 4.69684 8.09185 4.69684C6.86297 4.69684 5.86677 5.53393 5.86677 6.56653C5.86677 7.59914 6.86297 8.43623 8.09185 8.43623Z" fill="#777E91"/>
<path d="M18.2396 10.0323L20.2359 11.7097C20.167 12.5849 20.0664 13.397 19.9556 14.1183L16.6663 11.3544C16.2318 10.9893 15.5274 10.9893 15.0929 11.3544L12.677 13.3844C11.3735 14.4797 9.26028 14.4797 7.95687 13.3844L7.76599 13.2241C7.33151 12.859 6.6271 12.859 6.19262 13.2241L3.51245 15.4762C3.20197 15.1224 2.99423 14.6979 2.9205 14.2288C2.8803 13.973 2.84128 13.7053 2.80444 13.4269L4.61926 11.902C5.92268 10.8067 8.03593 10.8067 9.33935 11.902L9.53023 12.0624C9.96471 12.4275 10.6691 12.4275 11.1036 12.0624L13.5196 10.0323C14.823 8.93704 16.9362 8.93704 18.2396 10.0323Z" fill="#777E91"/>
</svg>
