<svg width="15" height="13" viewBox="0 0 15 13" fill="none" xmlns="http://www.w3.org/2000/svg">
<path d="M10.5 2.29412H12V13H3V2.29412H4.5V1.52941C4.5 1.12379 4.65804 0.734775 4.93934 0.447954C5.22064 0.161134 5.60218 0 6 0H9C9.39782 0 9.77936 0.161134 10.0607 0.447954C10.342 0.734775 10.5 1.12379 10.5 1.52941V2.29412ZM12.75 2.29412H13.5C13.8978 2.29412 14.2794 2.45525 14.5607 2.74207C14.842 3.02889 15 3.4179 15 3.82353V11.4706C15 11.8762 14.842 12.2652 14.5607 12.552C14.2794 12.8389 13.8978 13 13.5 13H12.75V2.29412ZM2.25 2.29412V13H1.5C1.10218 13 0.720644 12.8389 0.43934 12.552C0.158035 12.2652 0 11.8762 0 11.4706V3.82353C0 2.98235 0.675 2.29412 1.5 2.29412H2.25ZM6 1.52941V2.29412H9V1.52941H6Z" fill="white"/>
</svg>
