<svg width="12" height="12" viewBox="0 0 12 17" fill="none" xmlns="http://www.w3.org/2000/svg">
<path fill-rule="evenodd" clip-rule="evenodd" d="M0.708333 6.375C1.09953 6.375 1.41667 6.69213 1.41667 7.08333V7.79167C1.41667 10.1389 3.31946 12.0417 5.66667 12.0417C8.01388 12.0417 9.91667 10.1389 9.91667 7.79167V7.08333C9.91667 6.69213 10.2338 6.375 10.625 6.375C11.0162 6.375 11.3333 6.69213 11.3333 7.08333V7.79167C11.3333 10.6814 9.1703 13.0659 6.375 13.4145V15.5833H8.5C8.8912 15.5833 9.20833 15.9005 9.20833 16.2917C9.20833 16.6829 8.8912 17 8.5 17H6.375H4.95833H2.83333C2.44213 17 2.125 16.6829 2.125 16.2917C2.125 15.9005 2.44213 15.5833 2.83333 15.5833H4.95833V13.4145C2.16303 13.0659 0 10.6814 0 7.79167V7.08333C0 6.69213 0.317132 6.375 0.708333 6.375Z" fill="#A9ABAD"/>
<path fill-rule="evenodd" clip-rule="evenodd" d="M7.08276 7.79167V2.83333C7.08276 2.05093 6.4485 1.41667 5.6661 1.41667C4.88369 1.41667 4.24943 2.05093 4.24943 2.83333V7.79167C4.24943 8.57407 4.88369 9.20833 5.6661 9.20833C6.4485 9.20833 7.08276 8.57407 7.08276 7.79167ZM5.6661 0C4.10129 0 2.83276 1.26853 2.83276 2.83333V7.79167C2.83276 9.35647 4.10129 10.625 5.6661 10.625C7.2309 10.625 8.49943 9.35647 8.49943 7.79167V2.83333C8.49943 1.26853 7.2309 0 5.6661 0Z" fill="#A9ABAD"/>
</svg>
