<svg width="197" height="229" viewBox="0 0 197 229" fill="none" xmlns="http://www.w3.org/2000/svg">
<path fill-rule="evenodd" clip-rule="evenodd" d="M100.751 82.4065C102.426 83.6811 103.423 85.3002 102.336 87.1228C101.418 88.6607 99.3114 88.6764 97.0622 88.1107C97.3993 89.0654 97.7936 89.9996 98.2431 90.9083C99.2217 92.8864 100.042 94.3147 100.704 95.1929C101.963 96.8642 104.29 95.2677 107.686 90.4035C109.026 88.4833 111.22 87.3392 113.561 87.3392C113.775 87.3392 113.989 87.361 114.198 87.4041C115.907 87.756 117.007 89.4267 116.656 91.1357C112.883 109.459 109.889 119.455 107.674 121.125C104.128 123.796 100.833 135.607 100.833 135.607L80.9291 132.72L78.7182 124.039C78.0452 121.397 77.9337 118.643 78.3908 115.954L83.3336 86.887C83.6638 84.9448 84.2755 83.0612 85.1492 81.2955L87.0128 77.5296C88.4744 74.576 91.5786 72.801 94.8654 73.0394L112.647 74.3293C114.16 74.439 115.481 75.3953 116.057 76.7985C116.897 78.8419 115.921 81.1792 113.878 82.0189C112.209 82.7048 107.833 82.834 100.751 82.4065Z" fill="#8093B8"/>
<path fill-rule="evenodd" clip-rule="evenodd" d="M80.3104 98.5497L76.825 104.462C76.7841 104.532 76.7462 104.603 76.7114 104.676L64.3496 130.535L66.6297 144.089L86.3907 129.015L85.3773 114.194L79.5504 118.121L82.6979 99.4204C82.8164 98.7166 82.3419 98.05 81.6381 97.9316C81.1102 97.8427 80.5822 98.0885 80.3104 98.5497Z" fill="#9AACD3"/>
<path fill-rule="evenodd" clip-rule="evenodd" d="M66.7562 101.639C61.9331 99.8751 57.11 98.1114 52.2869 96.3478C40.46 92.0231 27.3667 98.1049 23.042 109.932C22.2193 112.182 21.7563 114.547 21.6701 116.941L20.7739 141.809H71.9498C68.4874 115.029 66.7562 101.639 66.7562 101.639Z" fill="#CBDBFE"/>
<path fill-rule="evenodd" clip-rule="evenodd" d="M64.5692 53.3866L76.2839 52.4119L78.3019 38.8615C78.3637 38.4463 78.7504 38.1599 79.1656 38.2217C79.498 38.2712 79.7584 38.5331 79.806 38.8659L81.9814 54.0804C82.1992 55.604 81.1407 57.0157 79.6171 57.2336C79.6047 57.2353 79.5923 57.237 79.5799 57.2386L65.8172 59.0176C64.0971 59.24 62.5133 58.0508 62.247 56.3369C62.0295 54.9369 62.9881 53.6257 64.3881 53.4081C64.4482 53.3988 64.5086 53.3916 64.5692 53.3866Z" fill="#DFE9FF"/>
<mask id="mask0_0_1" style="mask-type:alpha" maskUnits="userSpaceOnUse" x="21" y="0" width="53" height="103">
<path d="M34.6298 101.735C33.8094 102.051 32.905 102.186 31.9704 102.097C31.6237 102.063 31.2805 102.001 30.9444 101.91C27.6534 101.019 25.7081 97.6283 26.5994 94.3373L27.9802 89.2392L27.9602 89.2502C26.8791 89.8462 25.6027 89.9788 24.4222 89.6177C22.0121 88.8805 20.656 86.3291 21.3932 83.919L28.6012 58.8499C29.1949 55.9305 30.2574 52.3336 31.9729 47.1232L32.174 46.4237L32.1822 46.4892C34.2945 40.1084 37.3493 31.3714 41.6609 18.6823C41.741 18.4465 44.1136 11.3191 44.1943 11.082C44.7045 10.4018 45.6694 10.2639 46.3496 10.7741C46.6255 10.981 46.8239 11.2745 46.9131 11.6077L48.5012 17.5423L50.6803 1.53443C50.8124 0.563948 51.7062 -0.115691 52.6767 0.0164172C53.3682 0.110544 53.9402 0.601448 54.1381 1.27064L54.4548 2.34153L72.6 61.3134C73.3353 63.703 73.7091 66.1892 73.7091 68.6894V92.4061C73.7091 98.1427 69.0586 102.793 63.322 102.793H39.2025C37.5639 102.793 36.0112 102.413 34.6298 101.735Z" fill="white"/>
</mask>
<g mask="url(#mask0_0_1)">
<path d="M34.6293 101.735C33.8089 102.051 32.9045 102.186 31.9699 102.097C31.6232 102.063 31.28 102.001 30.9439 101.91C27.653 101.019 25.7077 97.6283 26.599 94.3373L27.9797 89.2392L27.9597 89.2502C26.8787 89.8462 25.6022 89.9788 24.4217 89.6177C22.0116 88.8805 20.6555 86.3291 21.3927 83.919L28.6007 58.8499C29.1944 55.9305 30.2569 52.3336 31.9724 47.1232L32.1735 46.4237L32.1817 46.4892C34.294 40.1084 37.3488 31.3714 41.6604 18.6823C41.7405 18.4465 44.1131 11.3191 44.1938 11.082C44.704 10.4018 45.6689 10.2639 46.3491 10.7741C46.625 10.981 46.8234 11.2745 46.9126 11.6077L48.5007 17.5423L50.6798 1.53443C50.8119 0.563948 51.7057 -0.115691 52.6762 0.0164172C53.3677 0.110544 53.9397 0.601448 54.1376 1.27064L54.4544 2.34153L72.5995 61.3134C73.3348 63.703 73.7087 66.1892 73.7087 68.6894V92.4061C73.7087 98.1427 69.0582 102.793 63.3215 102.793H39.202C37.5634 102.793 36.0107 102.413 34.6293 101.735Z" fill="#CBDBFE"/>
<path fill-rule="evenodd" clip-rule="evenodd" d="M73.0754 64.0313C72.5687 62.6801 71.8087 62.1312 70.7953 62.3845C69.7819 62.6379 69.1063 63.5668 68.7685 65.1714C67.2067 62.6334 64.3356 61.2068 61.3695 61.4949C60.5031 61.5791 59.5492 61.7067 58.508 61.8779C52.3599 62.8882 49.4399 68.9592 49.1342 72.1384C48.8743 74.8411 49.0878 73.036 49.1478 79.8654C49.1608 81.3351 48.4311 85.2423 46.959 91.5869C46.2632 94.5855 48.13 97.5803 51.1285 98.2761C51.53 98.3693 51.9406 98.4176 52.3528 98.4202C57.939 98.4558 61.0886 98.4356 61.8015 98.3597C65.5718 97.958 66.389 97.093 69.1622 97.093C71.5014 97.093 72.6415 97.6841 72.5824 98.8664C76.6323 97.2769 78.8234 93.2656 79.1557 86.8324C79.4881 80.3993 77.4613 72.7989 73.0754 64.0313Z" fill="#B0BFDC"/>
</g>
<path fill-rule="evenodd" clip-rule="evenodd" d="M61.2959 92.5327H63.3227L62.7397 95.1884C62.6955 95.39 62.5334 95.5446 62.3301 95.5793C62.0542 95.6264 61.7924 95.4409 61.7453 95.1651L61.2959 92.5327ZM71.1764 92.5327H73.2032L72.6202 95.1884C72.576 95.39 72.4139 95.5446 72.2106 95.5793C71.9347 95.6264 71.6729 95.4409 71.6258 95.1651L71.1764 92.5327Z" fill="white"/>
<mask id="mask1_0_1" style="mask-type:alpha" maskUnits="userSpaceOnUse" x="104" y="138" width="91" height="88">
<path d="M154.071 164.616C159.721 150.821 163.598 143.164 165.7 141.644C168.278 139.78 171.195 140.219 172.422 141.741C176.503 137.783 180.53 137.685 184.504 141.445C184.847 141.676 185.161 141.909 185.446 142.143C186.813 142.122 188.194 142.384 189.591 142.93C196.607 145.672 195.6 151.399 186.572 160.111L160.73 189.84C157.661 193.37 153.675 195.981 149.213 197.385C148.063 197.747 146.593 198.958 144.801 201.02C143.209 202.851 142.343 204.226 142.204 205.145C141.484 209.896 139.428 214.344 136.276 217.971L132.964 221.78C132.695 222.09 132.405 222.383 132.096 222.655C128.217 226.083 122.293 225.716 118.865 221.837L112.839 215.016L112.791 215.059L112.72 214.881L111.565 213.574L112.02 213.124L104.513 194.268L136.555 164.552L153.74 165.056C153.851 164.909 153.961 164.762 154.071 164.616Z" fill="white"/>
</mask>
<g mask="url(#mask1_0_1)">
<path d="M154.071 164.616C159.721 150.821 163.598 143.164 165.7 141.644C168.278 139.78 171.195 140.219 172.422 141.741C176.503 137.783 180.53 137.685 184.504 141.445C184.847 141.676 185.161 141.909 185.446 142.143C186.813 142.122 188.194 142.384 189.591 142.93C196.607 145.672 195.6 151.399 186.572 160.111L160.73 189.84C157.661 193.37 153.675 195.981 149.213 197.385C148.063 197.747 146.593 198.958 144.801 201.02C143.209 202.851 142.343 204.226 142.204 205.145C141.484 209.896 139.428 214.344 136.276 217.971L132.964 221.78C132.695 222.09 132.405 222.383 132.096 222.655C128.217 226.083 122.293 225.716 118.865 221.837L112.839 215.016L112.791 215.059L112.72 214.881L111.565 213.574L112.02 213.124L104.513 194.268L136.555 164.552L153.74 165.056C153.851 164.909 153.961 164.762 154.071 164.616Z" fill="#8093B8"/>
</g>
<mask id="mask2_0_1" style="mask-type:alpha" maskUnits="userSpaceOnUse" x="50" y="78" width="14" height="8">
<path d="M60.0316 78.4719H54.458C52.4991 78.4719 50.9111 80.0599 50.9111 82.0188C50.9111 83.9776 52.4991 85.5656 54.458 85.5656H60.0316C61.9905 85.5656 63.5784 83.9776 63.5784 82.0188C63.5784 80.0599 61.9905 78.4719 60.0316 78.4719Z" fill="white"/>
</mask>
<g mask="url(#mask2_0_1)">
<path d="M60.0306 78.4719H54.457C52.4981 78.4719 50.9102 80.0599 50.9102 82.0188C50.9102 83.9776 52.4981 85.5656 54.457 85.5656H60.0306C61.9895 85.5656 63.5775 83.9776 63.5775 82.0188C63.5775 80.0599 61.9895 78.4719 60.0306 78.4719Z" fill="white"/>
<path d="M63.7035 81.2587C63.7035 79.7196 62.4558 78.4719 60.9167 78.4719C59.3776 78.4719 58.1299 79.7196 58.1299 81.2587V82.7788C58.1299 84.3179 59.3776 85.5656 60.9167 85.5656C62.4558 85.5656 63.7035 84.3179 63.7035 82.7788V81.2587Z" fill="#2B2B2B"/>
</g>
<mask id="mask3_0_1" style="mask-type:alpha" maskUnits="userSpaceOnUse" x="70" y="78" width="4" height="8">
<path d="M73.7112 78.4719V85.5656C71.8223 85.5656 70.291 84.0344 70.291 82.1454V81.8921C70.291 80.0032 71.8223 78.4719 73.7112 78.4719Z" fill="white"/>
</mask>
<g mask="url(#mask3_0_1)">
<path d="M73.7112 78.4719V85.5656C71.8223 85.5656 70.291 84.0344 70.291 82.1454V81.8921C70.291 80.0032 71.8223 78.4719 73.7112 78.4719Z" fill="white"/>
<path d="M77.764 81.2587C77.764 79.7196 76.5163 78.4719 74.9772 78.4719C73.4381 78.4719 72.1904 79.7196 72.1904 81.2587V82.7788C72.1904 84.3179 73.4381 85.5656 74.9772 85.5656C76.5163 85.5656 77.764 84.3179 77.764 82.7788V81.2587Z" fill="#2B2B2B"/>
</g>
<path fill-rule="evenodd" clip-rule="evenodd" d="M129.967 185.764C134.051 185.136 137.503 182.403 139.051 178.572L139.088 178.48C140.674 174.555 140.227 170.1 137.892 166.568L136.681 164.736C141.123 166.352 146.033 164.06 147.648 159.618C147.686 159.514 147.722 159.41 147.756 159.305L149.222 154.729C141.918 155.435 136.767 154.928 133.767 153.209C130.768 151.49 128.235 149.379 126.167 146.875L123.76 150.929L129.967 185.764Z" fill="#9AACD3"/>
<mask id="mask4_0_1" style="mask-type:alpha" maskUnits="userSpaceOnUse" x="70" y="185" width="107" height="41">
<path d="M136.67 203.713C150.788 198.927 159.111 196.829 161.637 197.418C164.735 198.141 166.317 200.63 165.974 202.555C171.638 203.038 174.354 206.013 174.123 211.479L173.345 211.792C174.687 212.959 175.686 214.46 176.34 216.292C178.874 223.386 173.891 226.384 161.393 225.286H122.002C117.325 225.286 112.739 223.991 108.752 221.545C107.725 220.914 105.846 220.599 103.114 220.599C100.688 220.599 99.0821 220.848 98.2974 221.346C94.2395 223.92 89.5333 225.286 84.728 225.286H79.681C79.2697 225.286 78.8589 225.259 78.4511 225.205C73.3189 224.526 69.709 219.815 70.3883 214.682L71.5825 205.659L71.5183 205.652L71.606 205.482L71.835 203.752L72.4735 203.8L81.7788 185.764L125.228 190.451L136.122 203.752C136.305 203.739 136.488 203.726 136.67 203.713Z" fill="white"/>
</mask>
<g mask="url(#mask4_0_1)">
<path d="M136.67 203.713C150.788 198.927 159.11 196.829 161.637 197.418C164.734 198.141 166.317 200.63 165.973 202.555C171.637 203.038 174.354 206.013 174.123 211.479L173.344 211.792C174.687 212.959 175.685 214.46 176.34 216.292C178.873 223.386 173.891 226.384 161.392 225.286H122.002C117.324 225.286 112.738 223.991 108.752 221.545C107.724 220.914 105.845 220.599 103.114 220.599C100.687 220.599 99.0816 220.848 98.297 221.346C94.239 223.92 89.5328 225.286 84.7276 225.286H79.6805C79.2692 225.286 78.8584 225.259 78.4506 225.205C73.3184 224.526 69.7085 219.815 70.3878 214.682L71.582 205.659L71.5178 205.652L71.6055 205.482L71.8345 203.752L72.473 203.8L81.7783 185.764L125.227 190.451L136.121 203.752C136.305 203.739 136.488 203.726 136.67 203.713Z" fill="#B0BFDC"/>
<path d="M174.59 211.314C174.49 211.172 174.296 210.944 173.998 210.659C173.515 210.196 172.908 209.736 172.168 209.309C168.643 207.274 163.529 206.671 156.577 208.326C156.305 208.391 156.137 208.664 156.201 208.936C156.266 209.208 156.539 209.377 156.812 209.312C163.52 207.714 168.37 208.287 171.661 210.187C172.329 210.573 172.871 210.983 173.298 211.391C173.444 211.531 173.565 211.66 173.662 211.774C173.716 211.838 173.749 211.88 173.761 211.897C173.921 212.126 174.237 212.181 174.466 212.02C174.695 211.86 174.751 211.543 174.59 211.314Z" fill="#7181A1"/>
<path d="M176.117 215.659C176.397 215.659 176.624 215.886 176.624 216.166C176.624 216.446 176.397 216.672 176.117 216.672C175.375 216.672 171.879 215.87 169.468 215.08C167.901 214.566 166.695 214.049 165.959 213.535C164.909 212.803 164.688 211.876 165.698 211.187C167.714 209.813 170.603 209.813 174.344 211.128C174.608 211.22 174.747 211.51 174.654 211.774C174.561 212.038 174.272 212.176 174.008 212.084C170.541 210.865 167.969 210.865 166.269 212.024C165.969 212.228 165.992 212.323 166.539 212.704C167.173 213.147 168.304 213.632 169.783 214.117C172.099 214.875 175.512 215.659 176.117 215.659ZM169.869 201.978C170.149 201.978 170.376 202.205 170.376 202.485C170.376 202.765 170.149 202.992 169.869 202.992C169.041 202.992 168.451 202.928 167.235 202.743L167.201 202.737C165.469 202.474 164.625 202.422 163.287 202.599C161.503 202.835 159.34 203.52 156.486 204.819C156.232 204.935 155.931 204.822 155.815 204.567C155.699 204.313 155.812 204.012 156.066 203.896C159.005 202.559 161.261 201.844 163.154 201.594C164.608 201.402 165.535 201.458 167.353 201.735L167.388 201.741C168.556 201.919 169.107 201.978 169.869 201.978Z" fill="#7181A1"/>
</g>
<path fill-rule="evenodd" clip-rule="evenodd" d="M68.4767 75.059L72.0829 86.3499C72.455 87.5148 71.8122 88.7608 70.6473 89.1329C70.4418 89.1985 70.2279 89.2338 70.0122 89.2375L68.8347 89.2581C67.8554 89.2752 67.0477 88.4952 67.0306 87.5159C67.0304 87.5074 67.0303 87.4989 67.0303 87.4904L66.9927 75.2926C66.9914 74.8728 67.3306 74.5315 67.7504 74.5302C68.0819 74.5292 68.3759 74.7432 68.4767 75.059Z" fill="#7181A1"/>
<mask id="mask5_0_1" style="mask-type:alpha" maskUnits="userSpaceOnUse" x="12" y="113" width="125" height="91">
<path d="M22.0399 135.982L13.0225 176.129C10.5694 187.05 17.4344 197.892 28.3558 200.345C29.8137 200.673 31.3033 200.838 32.7975 200.838H53.5096C62.9705 200.838 71.6431 195.567 75.9991 187.168L84.7431 170.31L71.8224 203.752H77.7612C84.2529 203.752 90.3896 200.789 94.4266 195.705L98.2971 190.831V195.391C98.2971 200.009 102.04 203.752 106.658 203.752C111.676 203.752 116.158 200.61 117.869 195.892L119.705 190.831L121.746 194.759C124.617 200.285 130.326 203.752 136.552 203.752C130.646 186.132 127.268 171.987 126.418 161.316C125.569 150.646 126.54 134.558 129.332 113.054H104.251L59.0284 140.162L22.0399 135.982Z" fill="white"/>
</mask>
<g mask="url(#mask5_0_1)">
<path d="M22.0399 135.982L13.0225 176.129C10.5694 187.05 17.4344 197.892 28.3558 200.345C29.8137 200.673 31.3033 200.838 32.7975 200.838H53.5096C62.9705 200.838 71.6431 195.567 75.9991 187.168L84.7431 170.31L71.8224 203.752H77.7612C84.2529 203.752 90.3896 200.789 94.4266 195.705L98.2971 190.831V195.391C98.2971 200.009 102.04 203.752 106.658 203.752C111.676 203.752 116.158 200.61 117.869 195.892L119.705 190.831L121.746 194.759C124.617 200.285 130.326 203.752 136.552 203.752C130.646 186.132 127.268 171.987 126.418 161.316C125.569 150.646 126.54 134.558 129.332 113.054H104.251L59.0284 140.162L22.0399 135.982Z" fill="#9AACD3"/>
</g>
<path d="M52.1545 95.0445C53.4994 93.6997 54.5091 93.0395 55.0897 93.0395H73.4573C73.7372 93.0395 73.964 92.8127 73.964 92.5328C73.964 92.253 73.7372 92.0261 73.4573 92.0261H55.0897C54.1503 92.0261 52.9644 92.8015 51.438 94.328C51.2401 94.5258 51.2401 94.8467 51.438 95.0445C51.6358 95.2424 51.9567 95.2424 52.1545 95.0445Z" fill="#7181A1"/>
<mask id="mask6_0_1" style="mask-type:alpha" maskUnits="userSpaceOnUse" x="51" y="78" width="13" height="8">
<path d="M63.0992 80.2453H51.3809C51.9941 79.1852 53.1404 78.4719 54.4532 78.4719H60.0268C61.3396 78.4719 62.4859 79.1852 63.0992 80.2453V80.2453ZM62.9379 84.0455C62.297 84.9644 61.2321 85.5656 60.0268 85.5656H54.4532C53.2479 85.5656 52.183 84.9644 51.5421 84.0455H62.9379Z" fill="white"/>
</mask>
<g mask="url(#mask6_0_1)">
<path d="M63.0996 80.2453H51.3813C51.9946 79.1852 53.1409 78.4719 54.4537 78.4719H60.0273C61.3401 78.4719 62.4864 79.1852 63.0996 80.2453V80.2453ZM62.9384 84.0455C62.2975 84.9644 61.2326 85.5656 60.0273 85.5656H54.4537C53.2484 85.5656 52.1835 84.9644 51.5426 84.0455H62.9384Z" fill="#7181A1"/>
</g>
<path fill-rule="evenodd" clip-rule="evenodd" d="M128.176 100.306L106.976 113.565L137.847 119.56L151.367 109.475C154.239 107.332 156.516 104.49 157.982 101.22L161.65 93.0369C162.858 90.3406 162.725 87.2322 161.289 84.6495L159.206 80.9006L159.103 80.9648C158.704 78.7157 158.23 76.0403 157.68 72.9385C157.377 71.2284 156.326 69.7427 154.815 68.8864L153.401 68.0849L150.952 66.9132L150.729 64.7274L136.172 51.8499C136.129 51.812 136.085 51.775 136.041 51.7389C134.288 50.3147 131.712 50.5812 130.288 52.3342C129.009 53.9086 128.939 56.0909 130 57.7238C128.878 57.9489 127.871 58.6808 127.339 59.793C127.262 59.9537 127.197 60.1196 127.143 60.2896C126.403 62.6445 127.563 65.1778 129.829 66.1563L142.221 71.5061C142.972 78.9558 143.348 82.6806 143.348 82.6806C143.348 82.6806 130.883 92.0048 127.215 92.6515C124.769 93.0827 122.899 92.5156 121.605 90.9502L126.793 75.5336C126.808 75.4892 126.823 75.4444 126.836 75.3995C127.535 73.0784 126.22 70.6299 123.899 69.9308C121.472 69.1998 118.904 70.5305 118.101 72.9347C113.326 87.2394 111.173 95.7208 111.642 98.3788C112.413 102.751 106.768 113.636 106.768 113.636L128.176 100.306Z" fill="#B0BFDC"/>
<mask id="mask7_0_1" style="mask-type:alpha" maskUnits="userSpaceOnUse" x="70" y="78" width="4" height="8">
<path d="M73.711 80.2453H70.6387C71.2519 79.1852 72.3982 78.4719 73.711 78.4719V80.2453ZM73.711 85.5656C72.5057 85.5656 71.4408 84.9644 70.7999 84.0455H73.711V85.5656Z" fill="white"/>
</mask>
<g mask="url(#mask7_0_1)">
<path d="M73.711 80.2453H70.6387C71.2519 79.1852 72.3982 78.4719 73.711 78.4719V80.2453ZM73.711 85.5656C72.5057 85.5656 71.4408 84.9644 70.7999 84.0455H73.711V85.5656Z" fill="#7181A1"/>
</g>
<path fill-rule="evenodd" clip-rule="evenodd" d="M139.82 45.9287L122.991 45.4302C121.188 45.3768 119.633 46.6845 119.375 48.4694L113.973 85.9456L135.011 88.5709L138.31 86.2855L143.229 49.9499C143.492 48.0087 142.132 46.2221 140.191 45.9592C140.068 45.9426 139.944 45.9324 139.82 45.9287Z" fill="#2B2B2B"/>
<path d="M126.546 85.3123C125.077 85.3123 123.886 84.1213 123.886 82.6522C123.886 81.183 125.077 79.9921 126.546 79.9921C128.015 79.9921 129.206 81.183 129.206 82.6522C129.206 84.1213 128.015 85.3123 126.546 85.3123ZM126.546 84.2989C127.455 84.2989 128.193 83.5617 128.193 82.6522C128.193 81.7427 127.455 81.0054 126.546 81.0054C125.636 81.0054 124.899 81.7427 124.899 82.6522C124.899 83.5617 125.636 84.2989 126.546 84.2989ZM133.605 47.5248C133.678 47.5273 133.72 47.524 133.738 47.5191C133.737 47.5195 133.736 47.5194 133.744 47.5131C133.772 47.4895 133.804 47.4415 133.831 47.3666C133.871 47.2562 133.888 47.1437 133.899 46.8392L133.9 46.8L134.205 45.558L134.943 45.7391L134.657 46.9054C134.643 47.256 134.614 47.4357 134.546 47.6253C134.475 47.8206 134.369 47.9825 134.228 48.0993C134.053 48.2433 133.871 48.2946 133.578 48.2844L128.547 48.1086C128.254 48.0984 128.076 48.0346 127.912 47.8788C127.779 47.7524 127.685 47.5835 127.628 47.3838C127.571 47.1827 127.556 46.9952 127.569 46.6182L127.57 46.579L127.875 45.3369L128.613 45.518L128.327 46.6835C128.319 46.9591 128.328 47.0676 128.359 47.1755C128.381 47.2522 128.409 47.3022 128.436 47.3277C128.443 47.3346 128.442 47.3346 128.441 47.334C128.459 47.3402 128.5 47.3465 128.574 47.3491L133.605 47.5248Z" fill="white"/>
<mask id="mask8_0_1" style="mask-type:alpha" maskUnits="userSpaceOnUse" x="0" y="200" width="69" height="26">
<path d="M14.7586 209.102L0 225.286H68.6568L61.6813 213.372C57.1359 205.609 48.8145 200.838 39.8184 200.838H33.4783C26.3541 200.838 19.559 203.838 14.7586 209.102Z" fill="white"/>
</mask>
<g mask="url(#mask8_0_1)">
<path d="M14.7586 209.102L0 225.286H68.6568L61.6813 213.372C57.1359 205.609 48.8145 200.838 39.8184 200.838H33.4783C26.3541 200.838 19.559 203.838 14.7586 209.102Z" fill="#DFE9FF"/>
<path d="M8.24023 213.828L9.06345 212.941C14.9899 218.502 21.2144 221.269 27.7548 221.269C33.0037 221.269 38.8295 218.738 42.6384 214.47C47.1668 209.397 48.6068 202.391 46.079 193.95L47.2343 193.6C49.8815 202.439 48.3508 209.886 43.5364 215.28C39.4951 219.808 33.3413 222.482 27.7548 222.482C20.8896 222.482 14.3788 219.588 8.24023 213.828ZM61.0807 210.888L61.5398 212.069C54.2062 214.921 51.1787 219.582 52.3075 226.193L51.0588 226.406C49.823 219.168 53.2136 213.948 61.0807 210.888Z" fill="white"/>
<path d="M10.0137 208.947C15.14 213.738 20.5828 216.148 26.3242 216.148C31.0026 216.148 36.1519 213.92 39.5347 210.144C43.5643 205.647 44.8453 199.439 42.6329 192.08L41.4736 192.426C43.5675 199.391 42.3764 205.163 38.6316 209.342C35.4818 212.858 30.6624 214.943 26.3242 214.943C20.9103 214.943 15.7555 212.661 10.842 208.068L10.0137 208.947Z" fill="white"/>
</g>
<path fill-rule="evenodd" clip-rule="evenodd" d="M74.9776 61.3712C76.1177 65.9314 74.9776 68.0849 71.1774 68.0849C68.644 68.0849 66.1105 66.9026 63.577 64.538C64.9282 66.9026 64.1682 68.0849 61.2969 68.0849C56.99 68.0849 56.3567 65.4098 56.3567 65.1714C56.3567 64.933 56.2012 60.8625 57.1167 59.9778C57.5872 59.5231 59.743 59.5231 63.584 59.9778C70.4197 57.8666 74.2176 58.3311 74.9776 61.3712Z" fill="#CBDBFE"/>
<path fill-rule="evenodd" clip-rule="evenodd" d="M44.4727 73.8163C45.6128 78.3765 44.4727 80.53 40.6725 80.53C38.1391 80.53 35.6056 79.3477 33.0722 76.9831C34.4233 79.3477 33.6633 80.53 30.792 80.53C26.4852 80.53 25.8518 77.8549 25.8518 77.6165C25.8518 77.378 25.6963 73.3076 26.6118 72.4229C27.0824 71.9682 29.2381 71.9682 33.0791 72.4229C39.9148 70.3117 43.7127 70.7761 44.4727 73.8163Z" fill="#CBDBFE"/>
<path fill-rule="evenodd" clip-rule="evenodd" d="M130.094 41.7368L127.181 34.8965H126.801C120.924 34.8965 116.16 30.1326 116.16 24.2559V11.9687C116.16 6.09205 120.924 1.32812 126.801 1.32812H159.736C165.612 1.32812 170.376 6.09205 170.376 11.9687V24.2559C170.376 30.1326 165.612 34.8965 159.736 34.8965H135.161L130.094 41.7368Z" fill="#DFE9FF"/>
<path fill-rule="evenodd" clip-rule="evenodd" d="M105.812 112.137C105.812 112.137 112.019 101.562 111.478 97.1554C111.149 94.4765 113.743 86.1194 119.26 72.0843C120.187 69.7253 122.822 68.5309 125.207 69.3879C127.641 70.2622 129.037 72.8175 128.458 75.3378L125.338 88.9262C124.999 90.4036 125.921 91.8764 127.399 92.2156C127.659 92.2753 127.926 92.2968 128.192 92.2795" fill="#B0BFDC"/>
<path fill-rule="evenodd" clip-rule="evenodd" d="M60.2153 75.8792L51.8264 77.3849C51.6887 77.4096 51.557 77.318 51.5323 77.1802C51.5251 77.1403 51.5277 77.0992 51.5397 77.0604L51.9862 75.6217C52.337 74.4912 53.2825 73.6461 54.4452 73.4238L57.4114 72.8568L58.7632 73.5316L58.7264 72.6054L59.427 72.4714C60.2524 72.3136 61.0494 72.8548 61.2072 73.6802C61.2218 73.7566 61.2305 73.834 61.2333 73.9116L61.2574 74.5871C61.2799 75.2171 60.8358 75.7678 60.2153 75.8792ZM71.3186 72.9317C70.7839 72.7616 70.4249 72.2601 70.4362 71.6991L70.4593 70.5532C70.4615 70.4441 70.4804 70.336 70.5154 70.2326C70.7044 69.6751 71.3095 69.3763 71.867 69.5652L71.8462 70.4915L72.6088 69.8166L73.5816 70.1463C74.6704 70.5153 75.4709 71.4492 75.6692 72.5816L75.9186 74.0064C75.9257 74.0467 75.9229 74.088 75.9105 74.1269C75.8681 74.2603 75.7256 74.334 75.5923 74.2915L71.3186 72.9317Z" fill="#CBDBFE"/>
<path fill-rule="evenodd" clip-rule="evenodd" d="M66.5628 101.486L70.8559 99.2031L71.3749 103.337C71.4758 104.141 71.2221 104.949 70.6799 105.55C69.6495 106.694 67.8874 106.785 66.7441 105.755L65.7805 104.886L65.2653 107.126C65.0133 108.222 64.3176 109.164 63.3445 109.726C61.4066 110.847 58.9269 110.185 57.806 108.247L55.7437 104.682L53.0193 110.324C52.4845 111.431 51.4756 112.236 50.2769 112.512C48.095 113.013 45.9198 111.651 45.4185 109.469L44.2223 104.263L42.2348 107.343C41.5695 108.374 40.4728 109.049 39.2523 109.177C37.0258 109.411 35.0313 107.795 34.7974 105.569L34.2915 100.753C38.4132 100.384 41.2919 100.389 42.9276 100.766C43.3554 100.865 43.7165 100.994 44.0108 101.152C44.9661 100.716 46.294 100.588 47.9945 100.766C49.5321 100.928 51.6137 101.366 54.2391 102.08L53.9881 101.646L66.9999 99.5855L66.5628 101.486Z" fill="#CBDBFE"/>
<path d="M44.9617 109.625C45.5257 112.08 47.9728 113.613 50.4273 113.049C51.7759 112.739 52.9109 111.833 53.5126 110.587L55.821 105.807L57.4044 108.544C58.6655 110.724 61.455 111.469 63.6352 110.208C64.7299 109.575 65.5126 108.516 65.7961 107.283L66.1182 105.883L66.4419 106.174C66.6497 106.362 66.9701 106.345 67.1575 106.137C67.3448 105.929 67.3282 105.609 67.1203 105.422L66.1568 104.553C65.8697 104.294 65.4104 104.439 65.3237 104.816L64.8085 107.056C64.588 108.015 63.9793 108.839 63.1278 109.331C61.4321 110.312 59.2624 109.732 58.2817 108.037L56.2193 104.471C56.0157 104.119 55.5012 104.138 55.3244 104.505L52.6 110.147C52.132 111.116 51.2493 111.82 50.2004 112.061C48.2913 112.5 46.388 111.308 45.9493 109.399L44.7531 104.193C44.6527 103.756 44.0765 103.655 43.8335 104.032L41.8461 107.112C41.2639 108.014 40.3043 108.604 39.2363 108.716C37.2882 108.921 35.543 107.507 35.3384 105.559L34.8324 100.743C34.8032 100.465 34.5539 100.263 34.2756 100.292C33.9973 100.321 33.7954 100.57 33.8246 100.849L34.3305 105.665C34.5936 108.17 36.8374 109.987 39.3422 109.724C40.7153 109.58 41.9491 108.821 42.6976 107.661L44.0343 105.59L44.9617 109.625Z" fill="#B0BFDC"/>
<path fill-rule="evenodd" clip-rule="evenodd" d="M35.4344 56.1088L23.8008 57.7944L18.7863 45.0452C18.6327 44.6545 18.1915 44.4624 17.8009 44.6161C17.4881 44.7391 17.2933 45.0529 17.3217 45.3878L18.6246 60.7017C18.7551 62.2353 20.1041 63.3727 21.6377 63.2423C21.6501 63.2412 21.6626 63.2401 21.675 63.2388L35.4852 61.8763C37.2112 61.706 38.4869 60.191 38.3608 58.4612C38.2578 57.0481 37.0288 55.9861 35.6158 56.0891C35.5551 56.0935 35.4946 56.1001 35.4344 56.1088Z" fill="#DFE9FF"/>
<path fill-rule="evenodd" clip-rule="evenodd" d="M29.2519 99.9455L57.5087 139.022L105.42 99.9462C105.991 99.4801 106.588 99.0451 107.206 98.6431L111.614 95.778C112.963 94.9014 114.723 94.9977 115.968 96.0163C117.321 97.1234 118.258 98.6575 118.624 100.367L118.818 101.273L122.227 99.6036C123.923 98.7728 125.972 99.4743 126.803 101.17C127.269 102.122 127.267 103.236 126.799 104.187L131.023 103.466C131.667 103.356 132.322 103.319 132.974 103.357L143.262 103.957C145.078 104.063 146.464 105.621 146.358 107.437C146.347 107.632 146.318 107.826 146.272 108.015L144.972 113.422C144.85 113.928 144.601 114.394 144.247 114.776L134.668 125.126C134.067 125.775 133.425 126.385 132.745 126.952L58.203 189.07C56.1967 190.742 53.2737 190.711 51.3039 188.996L28.2109 168.895C25.176 166.253 23.4336 162.426 23.4336 158.403L22.234 159.37C20.6533 160.645 18.3884 160.611 16.8466 159.289C15.2197 157.895 14.5328 155.693 15.0781 153.621L16.0866 149.789L14.8128 150.857C13.3522 152.082 11.175 151.891 9.94994 150.431C9.9476 150.428 9.94527 150.425 9.94294 150.422C8.5626 148.766 8.12598 146.518 8.78578 144.466L10.0063 140.669L8.39755 141.741C6.90738 142.734 4.92053 142.523 3.67262 141.239C2.37588 139.904 2.03764 137.907 2.82241 136.219L19.2466 100.903C20.6036 97.9848 24.0692 96.7194 26.9872 98.0764C27.8893 98.4959 28.669 99.1394 29.2519 99.9455Z" fill="#CBDBFE"/>
<path d="M45.7697 122.147C45.6148 121.914 45.3004 121.851 45.0673 122.006C44.8341 122.16 44.7707 122.475 44.9255 122.708L55.946 139.302C56.1079 139.546 56.4418 139.602 56.6747 139.425L63.0084 134.612C63.2312 134.442 63.2745 134.124 63.1052 133.902C62.9359 133.679 62.618 133.636 62.3952 133.805L56.4915 138.292L45.7697 122.147Z" fill="#B0BFDC"/>
<path d="M131.341 184.613C131.32 184.54 131.131 183.91 131.063 183.682C130.886 183.083 130.71 182.467 130.523 181.78C129.993 179.839 129.478 177.725 128.995 175.419C127.064 166.199 126.166 156.574 126.866 147.112C126.886 146.833 126.677 146.59 126.398 146.57C126.119 146.549 125.876 146.758 125.855 147.037C125.148 156.605 126.054 166.321 128.003 175.627C128.49 177.953 129.01 180.087 129.545 182.047C129.734 182.741 129.913 183.364 130.092 183.97C130.162 184.206 130.348 184.825 130.366 184.888C130.441 185.157 130.721 185.314 130.991 185.238C131.26 185.162 131.417 184.883 131.341 184.613Z" fill="#CBDBFE"/>
<path d="M48.2931 18.1355L52.3689 29.9918C52.4599 30.2565 52.7482 30.3973 53.0128 30.3063C53.2775 30.2153 53.4183 29.927 53.3273 29.6624L49.2514 17.806C49.1604 17.5414 48.8722 17.4006 48.6075 17.4916C48.3429 17.5826 48.2021 17.8708 48.2931 18.1355Z" fill="#7181A1"/>
<mask id="mask9_0_1" style="mask-type:alpha" maskUnits="userSpaceOnUse" x="30" y="73" width="12" height="15">
<path d="M38.8352 87.3201C33.3826 87.0938 30.6562 84.8468 30.6562 80.5792C30.6562 76.1894 33.5409 73.8867 39.3101 73.6711C39.1661 73.9408 39.0597 74.3063 39.0167 74.7984C38.8736 76.4339 39.6471 77.2385 41.3373 77.2121C38.4001 79.515 36.9088 81.5817 36.8632 83.4122C36.8233 85.0174 37.525 86.4634 38.8352 87.3201Z" fill="white"/>
</mask>
<g mask="url(#mask9_0_1)">
<path d="M38.8347 87.3201C33.3821 87.0938 30.6558 84.8468 30.6558 80.5792C30.6558 76.1894 33.5404 73.8867 39.3096 73.6711C39.1656 73.9408 39.0592 74.3063 39.0162 74.7984C38.8731 76.4339 39.6466 77.2385 41.3368 77.2121C38.3997 79.515 36.9083 81.5817 36.8627 83.4122C36.8228 85.0174 37.5245 86.4634 38.8347 87.3201Z" fill="#B0BFDC"/>
</g>
<path d="M150.115 65.5096C150.068 65.2337 150.253 64.972 150.529 64.9252C150.805 64.8784 151.067 65.064 151.114 65.3399L153.918 81.8518C154.33 84.2806 153.453 86.7494 151.6 88.3734L145.121 94.0538C144.911 94.2383 144.591 94.2173 144.406 94.0069C144.222 93.7964 144.243 93.4763 144.453 93.2918L150.932 87.6114C152.52 86.2194 153.272 84.1033 152.918 82.0215L150.115 65.5096ZM158.601 81.2112C158.557 80.9348 158.746 80.6753 159.022 80.6317C159.299 80.5881 159.558 80.7768 159.602 81.0532L160.342 85.7444C160.619 87.4963 160.229 89.2883 159.25 90.7672L154.457 98.0061C154.302 98.2394 153.988 98.3033 153.755 98.1488C153.521 97.9943 153.457 97.6799 153.612 97.4466L158.405 90.2077C159.244 88.9401 159.579 87.4041 159.341 85.9025L158.601 81.2112ZM142.616 70.9917C142.689 71.2617 142.53 71.5402 142.26 71.6139C141.99 71.6875 141.712 71.5283 141.638 71.2583L140.878 68.4715C140.804 68.2016 140.964 67.923 141.234 67.8494C141.504 67.7758 141.782 67.9349 141.856 68.2049L142.616 70.9917ZM121.986 69.5864C121.997 69.3067 122.232 69.0883 122.511 69.0986C122.791 69.1089 123.009 69.3439 122.999 69.6235C122.822 74.4374 120.995 77.2692 117.524 77.9557C117.25 78.01 116.983 77.8315 116.929 77.557C116.874 77.2825 117.053 77.0159 117.327 76.9616C120.274 76.3788 121.825 73.9748 121.986 69.5864Z" fill="#7181A1"/>
<path d="M139.791 21.0739C139.563 21.0739 139.368 20.9923 139.205 20.8292C139.042 20.6661 138.96 20.4706 138.96 20.2429C138.96 20.0152 139.042 19.8197 139.205 19.6566C139.368 19.4935 139.563 19.4119 139.791 19.4119C140.019 19.4119 140.214 19.4935 140.377 19.6566C140.541 19.8197 140.622 20.0152 140.622 20.2429C140.622 20.3937 140.584 20.5322 140.507 20.6584C140.433 20.7846 140.333 20.8861 140.207 20.9631C140.084 21.0369 139.945 21.0739 139.791 21.0739ZM139.791 15.8111C139.563 15.8111 139.368 15.7295 139.205 15.5664C139.042 15.4033 138.96 15.2079 138.96 14.9801C138.96 14.7524 139.042 14.5569 139.205 14.3938C139.368 14.2307 139.563 14.1491 139.791 14.1491C140.019 14.1491 140.214 14.2307 140.377 14.3938C140.541 14.5569 140.622 14.7524 140.622 14.9801C140.622 15.1309 140.584 15.2694 140.507 15.3956C140.433 15.5218 140.333 15.6233 140.207 15.7003C140.084 15.7741 139.945 15.8111 139.791 15.8111ZM142.965 17.0114C142.965 15.848 143.116 14.7785 143.417 13.8029C143.722 12.8242 144.156 11.924 144.719 11.1023H145.68C145.458 11.407 145.25 11.7824 145.056 12.2287C144.865 12.6719 144.698 13.1597 144.553 13.6921C144.408 14.2215 144.295 14.7693 144.211 15.3356C144.131 15.9019 144.091 16.4605 144.091 17.0114C144.091 17.7438 144.162 18.4871 144.304 19.2411C144.445 19.9951 144.636 20.6953 144.876 21.3416C145.116 21.9879 145.384 22.5142 145.68 22.9205H144.719C144.156 22.0987 143.722 21.2 143.417 20.2244C143.116 19.2457 142.965 18.1747 142.965 17.0114Z" fill="black"/>
</svg>
