<svg width="197" height="229" viewBox="0 0 197 229" fill="none" xmlns="http://www.w3.org/2000/svg">
<path fill-rule="evenodd" clip-rule="evenodd" d="M100.752 82.4064C102.427 83.681 103.424 85.3001 102.336 87.1227C101.418 88.6606 99.3119 88.6763 97.0627 88.1106C97.3998 89.0653 97.7941 89.9995 98.2436 90.9082C99.2222 92.8863 100.042 94.3145 100.704 95.1928C101.964 96.864 104.291 95.2675 107.686 90.4033C109.026 88.4832 111.22 87.3391 113.562 87.3391C113.776 87.3391 113.989 87.3608 114.199 87.404C115.908 87.7559 117.008 89.4266 116.656 91.1356C112.884 109.459 109.89 119.455 107.674 121.124C104.128 123.796 100.833 135.607 100.833 135.607L80.9296 132.72L78.7187 124.039C78.0457 121.397 77.9342 118.642 78.3913 115.954L83.334 86.8869C83.6643 84.9447 84.276 83.0611 85.1497 81.2954L87.0133 77.5295C88.4749 74.5758 91.5791 72.8009 94.8659 73.0393L112.647 74.3291C114.16 74.4389 115.481 75.3951 116.058 76.7983C116.897 78.8418 115.922 81.1791 113.878 82.0188C112.209 82.7047 107.834 82.8339 100.752 82.4064Z" fill="#8093B8"/>
<path fill-rule="evenodd" clip-rule="evenodd" d="M80.3104 98.5497L76.825 104.463C76.7841 104.532 76.7462 104.603 76.7114 104.676L64.3496 130.535L66.6297 144.089L86.3907 129.015L85.3773 114.194L79.5504 118.121L82.6979 99.4204C82.8164 98.7166 82.3419 98.0501 81.6381 97.9316C81.1102 97.8428 80.5822 98.0886 80.3104 98.5497Z" fill="#9AACD3"/>
<path fill-rule="evenodd" clip-rule="evenodd" d="M66.7558 101.639C61.9326 99.875 57.1095 98.1114 52.2864 96.3477C40.4595 92.0231 27.3662 98.1048 23.0415 109.932C22.2188 112.182 21.7558 114.547 21.6696 116.941L20.7734 141.809H71.9493C68.4869 115.029 66.7558 101.639 66.7558 101.639Z" fill="#CBDBFE"/>
<path fill-rule="evenodd" clip-rule="evenodd" d="M64.5692 53.3866L76.2839 52.412L78.3019 38.8615C78.3637 38.4464 78.7504 38.1599 79.1656 38.2217C79.498 38.2712 79.7584 38.5332 79.806 38.8659L81.9814 54.0804C82.1992 55.6041 81.1407 57.0158 79.6171 57.2336C79.6047 57.2354 79.5923 57.2371 79.5799 57.2387L65.8172 59.0177C64.0971 59.24 62.5133 58.0508 62.247 56.337C62.0295 54.937 62.9881 53.6257 64.3881 53.4082C64.4482 53.3989 64.5086 53.3917 64.5692 53.3866Z" fill="#DFE9FF"/>
<mask id="mask0_441_4588" style="mask-type:alpha" maskUnits="userSpaceOnUse" x="21" y="0" width="53" height="103">
<path d="M34.6308 101.735C33.8103 102.051 32.906 102.186 31.9714 102.097C31.6247 102.063 31.2815 102.001 30.9453 101.91C27.6544 101.019 25.7091 97.6283 26.6004 94.3373L27.9812 89.2392L27.9612 89.2502C26.8801 89.8462 25.6037 89.9788 24.4232 89.6177C22.0131 88.8805 20.6569 86.3291 21.3942 83.919L28.6022 58.8499C29.1959 55.9305 30.2584 52.3336 31.9739 47.1232L32.175 46.4237L32.1832 46.4892C34.2955 40.1084 37.3503 31.3714 41.6618 18.6823C41.742 18.4465 44.1146 11.3191 44.1953 11.082C44.7054 10.4018 45.6704 10.2639 46.3506 10.7741C46.6265 10.981 46.8249 11.2745 46.9141 11.6077L48.5022 17.5423L50.6813 1.53443C50.8134 0.563948 51.7072 -0.115691 52.6777 0.0164172C53.3692 0.110544 53.9412 0.601448 54.1391 1.27064L54.4558 2.34153L72.601 61.3134C73.3363 63.703 73.7101 66.1892 73.7101 68.6894V92.4061C73.7101 98.1427 69.0596 102.793 63.3229 102.793H39.2034C37.5649 102.793 36.0122 102.413 34.6308 101.735Z" fill="white"/>
</mask>
<g mask="url(#mask0_441_4588)">
<path d="M34.6308 101.735C33.8103 102.051 32.906 102.186 31.9714 102.097C31.6247 102.063 31.2815 102.001 30.9453 101.91C27.6544 101.019 25.7091 97.6283 26.6004 94.3373L27.9812 89.2392L27.9612 89.2502C26.8801 89.8462 25.6037 89.9788 24.4232 89.6177C22.0131 88.8805 20.6569 86.3291 21.3942 83.919L28.6022 58.8499C29.1959 55.9305 30.2584 52.3336 31.9739 47.1232L32.175 46.4237L32.1832 46.4892C34.2955 40.1084 37.3503 31.3714 41.6618 18.6823C41.742 18.4465 44.1146 11.3191 44.1953 11.082C44.7054 10.4018 45.6704 10.2639 46.3506 10.7741C46.6265 10.981 46.8249 11.2745 46.9141 11.6077L48.5022 17.5423L50.6813 1.53443C50.8134 0.563948 51.7072 -0.115691 52.6777 0.0164172C53.3692 0.110544 53.9412 0.601448 54.1391 1.27064L54.4558 2.34153L72.601 61.3134C73.3363 63.703 73.7101 66.1892 73.7101 68.6894V92.4061C73.7101 98.1427 69.0596 102.793 63.3229 102.793H39.2034C37.5649 102.793 36.0122 102.413 34.6308 101.735Z" fill="#CBDBFE"/>
<path fill-rule="evenodd" clip-rule="evenodd" d="M73.0764 64.0313C72.5697 62.6801 71.8097 62.1312 70.7963 62.3845C69.7829 62.6379 69.1073 63.5668 68.7695 65.1714C67.2077 62.6334 64.3366 61.2068 61.3705 61.4949C60.5041 61.5791 59.5502 61.7067 58.509 61.8779C52.3608 62.8882 49.4409 68.9592 49.1352 72.1384C48.8753 74.8411 49.0888 73.036 49.1488 79.8654C49.1617 81.3351 48.4321 85.2423 46.9599 91.5869C46.2642 94.5855 48.1309 97.5803 51.1295 98.2761C51.531 98.3693 51.9416 98.4176 52.3538 98.4202C57.94 98.4558 61.0896 98.4356 61.8025 98.3597C65.5728 97.958 66.39 97.093 69.1632 97.093C71.5024 97.093 72.6424 97.6841 72.5833 98.8664C76.6332 97.2769 78.8244 93.2656 79.1567 86.8324C79.489 80.3993 77.4623 72.7989 73.0764 64.0313Z" fill="#B0BFDC"/>
</g>
<path fill-rule="evenodd" clip-rule="evenodd" d="M61.2969 92.5327H63.3236L62.7407 95.1884C62.6964 95.39 62.5344 95.5446 62.331 95.5793C62.0552 95.6264 61.7934 95.4409 61.7463 95.1651L61.2969 92.5327ZM71.1774 92.5327H73.2041L72.6212 95.1884C72.5769 95.39 72.4149 95.5446 72.2115 95.5793C71.9357 95.6264 71.6739 95.4409 71.6268 95.1651L71.1774 92.5327Z" fill="white"/>
<mask id="mask1_441_4588" style="mask-type:alpha" maskUnits="userSpaceOnUse" x="104" y="138" width="91" height="88">
<path d="M154.071 164.616C159.721 150.821 163.598 143.164 165.7 141.644C168.278 139.78 171.195 140.219 172.422 141.741C176.503 137.783 180.53 137.685 184.504 141.445C184.847 141.676 185.161 141.909 185.446 142.143C186.813 142.122 188.194 142.384 189.591 142.93C196.607 145.672 195.6 151.399 186.572 160.111L160.73 189.84C157.661 193.37 153.675 195.981 149.213 197.385C148.063 197.747 146.593 198.958 144.801 201.02C143.209 202.851 142.343 204.226 142.204 205.145C141.484 209.896 139.428 214.344 136.276 217.971L132.964 221.78C132.695 222.09 132.405 222.383 132.096 222.655C128.217 226.083 122.293 225.716 118.865 221.837L112.839 215.015L112.791 215.059L112.72 214.881L111.565 213.574L112.02 213.124L104.513 194.268L136.555 164.552L153.74 165.056C153.851 164.909 153.961 164.762 154.071 164.616Z" fill="white"/>
</mask>
<g mask="url(#mask1_441_4588)">
<path d="M154.071 164.616C159.721 150.821 163.598 143.164 165.7 141.644C168.278 139.78 171.195 140.219 172.422 141.741C176.503 137.783 180.53 137.685 184.504 141.445C184.847 141.676 185.161 141.909 185.446 142.143C186.813 142.122 188.194 142.384 189.591 142.93C196.607 145.672 195.6 151.399 186.572 160.111L160.73 189.84C157.661 193.37 153.675 195.981 149.213 197.385C148.063 197.747 146.593 198.958 144.801 201.02C143.209 202.851 142.343 204.226 142.204 205.145C141.484 209.896 139.428 214.344 136.276 217.971L132.964 221.78C132.695 222.09 132.405 222.383 132.096 222.655C128.217 226.083 122.293 225.716 118.865 221.837L112.839 215.015L112.791 215.059L112.72 214.881L111.565 213.574L112.02 213.124L104.513 194.268L136.555 164.552L153.74 165.056C153.851 164.909 153.961 164.762 154.071 164.616Z" fill="#8093B8"/>
</g>
<mask id="mask2_441_4588" style="mask-type:alpha" maskUnits="userSpaceOnUse" x="50" y="78" width="14" height="8">
<path d="M60.0306 78.472H54.457C52.4981 78.472 50.9102 80.06 50.9102 82.0188C50.9102 83.9777 52.4981 85.5657 54.457 85.5657H60.0306C61.9895 85.5657 63.5775 83.9777 63.5775 82.0188C63.5775 80.06 61.9895 78.472 60.0306 78.472Z" fill="white"/>
</mask>
<g mask="url(#mask2_441_4588)">
<path d="M60.0306 78.472H54.457C52.4981 78.472 50.9102 80.06 50.9102 82.0188C50.9102 83.9777 52.4981 85.5657 54.457 85.5657H60.0306C61.9895 85.5657 63.5775 83.9777 63.5775 82.0188C63.5775 80.06 61.9895 78.472 60.0306 78.472Z" fill="white"/>
<path d="M63.7025 81.2588C63.7025 79.7197 62.4548 78.472 60.9157 78.472C59.3766 78.472 58.1289 79.7197 58.1289 81.2588V82.7789C58.1289 84.318 59.3766 85.5657 60.9157 85.5657C62.4548 85.5657 63.7025 84.318 63.7025 82.7789V81.2588Z" fill="#2B2B2B"/>
</g>
<mask id="mask3_441_4588" style="mask-type:alpha" maskUnits="userSpaceOnUse" x="70" y="78" width="4" height="8">
<path d="M73.7112 78.472V85.5657C71.8223 85.5657 70.291 84.0345 70.291 82.1456V81.8922C70.291 80.0033 71.8223 78.472 73.7112 78.472Z" fill="white"/>
</mask>
<g mask="url(#mask3_441_4588)">
<path d="M73.7112 78.472V85.5657C71.8223 85.5657 70.291 84.0345 70.291 82.1456V81.8922C70.291 80.0033 71.8223 78.472 73.7112 78.472Z" fill="white"/>
<path d="M77.7631 81.2589C77.7631 79.7197 76.5154 78.472 74.9763 78.472C73.4371 78.472 72.1895 79.7197 72.1895 81.2589V82.7789C72.1895 84.318 73.4371 85.5657 74.9763 85.5657C76.5154 85.5657 77.7631 84.318 77.7631 82.7789V81.2589Z" fill="#2B2B2B"/>
</g>
<path fill-rule="evenodd" clip-rule="evenodd" d="M129.967 185.764C134.051 185.136 137.502 182.403 139.05 178.571L139.087 178.48C140.673 174.555 140.226 170.1 137.891 166.568L136.68 164.736C141.122 166.352 146.033 164.06 147.648 159.618C147.686 159.514 147.721 159.41 147.755 159.305L149.221 154.729C141.918 155.434 136.766 154.928 133.767 153.209C130.768 151.49 128.234 149.379 126.167 146.875L123.76 150.929L129.967 185.764Z" fill="#9AACD3"/>
<mask id="mask4_441_4588" style="mask-type:alpha" maskUnits="userSpaceOnUse" x="70" y="185" width="107" height="41">
<path d="M136.671 203.713C150.789 198.927 159.111 196.828 161.638 197.418C164.735 198.141 166.318 200.63 165.974 202.555C171.638 203.038 174.355 206.013 174.124 211.479L173.345 211.792C174.688 212.959 175.686 214.459 176.341 216.292C178.874 223.386 173.892 226.384 161.393 225.286H122.003C117.325 225.286 112.739 223.991 108.753 221.545C107.725 220.914 105.846 220.599 103.115 220.599C100.688 220.599 99.0826 220.848 98.2979 221.346C94.24 223.919 89.5338 225.286 84.7285 225.286H79.6815C79.2702 225.286 78.8593 225.259 78.4516 225.205C73.3193 224.526 69.7095 219.815 70.3888 214.682L71.583 205.659L71.5188 205.652L71.6065 205.482L71.8355 203.752L72.474 203.8L81.7793 185.764L125.228 190.451L136.122 203.752C136.306 203.739 136.489 203.726 136.671 203.713Z" fill="white"/>
</mask>
<g mask="url(#mask4_441_4588)">
<path d="M136.671 203.713C150.789 198.927 159.111 196.828 161.638 197.418C164.735 198.141 166.318 200.63 165.974 202.555C171.638 203.038 174.355 206.013 174.124 211.479L173.345 211.792C174.688 212.959 175.686 214.459 176.341 216.292C178.874 223.386 173.892 226.384 161.393 225.286H122.003C117.325 225.286 112.739 223.991 108.753 221.545C107.725 220.914 105.846 220.599 103.115 220.599C100.688 220.599 99.0826 220.848 98.2979 221.346C94.24 223.919 89.5338 225.286 84.7285 225.286H79.6815C79.2702 225.286 78.8593 225.259 78.4516 225.205C73.3193 224.526 69.7095 219.815 70.3888 214.682L71.583 205.659L71.5188 205.652L71.6065 205.482L71.8355 203.752L72.474 203.8L81.7793 185.764L125.228 190.451L136.122 203.752C136.306 203.739 136.489 203.726 136.671 203.713Z" fill="#B0BFDC"/>
<path d="M174.59 211.314C174.49 211.172 174.296 210.944 173.998 210.659C173.515 210.196 172.908 209.736 172.168 209.309C168.643 207.274 163.529 206.671 156.577 208.326C156.305 208.39 156.137 208.664 156.201 208.936C156.266 209.208 156.539 209.376 156.812 209.311C163.52 207.714 168.37 208.287 171.661 210.187C172.329 210.572 172.871 210.983 173.298 211.391C173.444 211.531 173.565 211.66 173.662 211.774C173.716 211.838 173.749 211.88 173.761 211.897C173.921 212.126 174.237 212.181 174.466 212.02C174.695 211.859 174.751 211.543 174.59 211.314Z" fill="#7181A1"/>
<path d="M176.117 215.659C176.397 215.659 176.624 215.886 176.624 216.166C176.624 216.445 176.397 216.672 176.117 216.672C175.375 216.672 171.879 215.869 169.468 215.08C167.901 214.566 166.695 214.049 165.959 213.535C164.909 212.802 164.688 211.876 165.698 211.187C167.714 209.812 170.603 209.812 174.344 211.127C174.608 211.22 174.747 211.509 174.654 211.773C174.561 212.037 174.272 212.176 174.008 212.083C170.541 210.865 167.969 210.865 166.269 212.024C165.969 212.228 165.992 212.322 166.539 212.704C167.173 213.147 168.304 213.632 169.783 214.117C172.099 214.875 175.512 215.659 176.117 215.659ZM169.869 201.978C170.149 201.978 170.376 202.205 170.376 202.485C170.376 202.765 170.149 202.992 169.869 202.992C169.041 202.992 168.451 202.928 167.235 202.742L167.201 202.737C165.469 202.473 164.625 202.422 163.287 202.599C161.503 202.834 159.34 203.52 156.486 204.818C156.232 204.934 155.931 204.822 155.815 204.567C155.699 204.313 155.812 204.012 156.066 203.896C159.005 202.559 161.261 201.844 163.154 201.594C164.608 201.402 165.535 201.458 167.353 201.735L167.388 201.741C168.556 201.918 169.107 201.978 169.869 201.978Z" fill="#7181A1"/>
</g>
<path fill-rule="evenodd" clip-rule="evenodd" d="M68.4772 75.0591L72.0834 86.35C72.4555 87.5149 71.8127 88.7609 70.6478 89.133C70.4423 89.1986 70.2284 89.2338 70.0127 89.2376L68.8352 89.2582C67.8559 89.2753 67.0482 88.4952 67.0311 87.516C67.0309 87.5075 67.0308 87.499 67.0308 87.4905L66.9932 75.2926C66.9919 74.8729 67.3311 74.5316 67.7509 74.5303C68.0824 74.5292 68.3763 74.7432 68.4772 75.0591Z" fill="#7181A1"/>
<mask id="mask5_441_4588" style="mask-type:alpha" maskUnits="userSpaceOnUse" x="12" y="113" width="125" height="91">
<path d="M22.0399 135.982L13.0225 176.129C10.5694 187.05 17.4344 197.892 28.3558 200.345C29.8137 200.673 31.3033 200.838 32.7975 200.838H53.5096C62.9705 200.838 71.6431 195.567 75.9991 187.168L84.7431 170.31L71.8224 203.752H77.7612C84.2529 203.752 90.3896 200.789 94.4266 195.705L98.2971 190.831V195.391C98.2971 200.009 102.04 203.752 106.658 203.752C111.676 203.752 116.158 200.61 117.869 195.892L119.705 190.831L121.746 194.759C124.617 200.285 130.326 203.752 136.552 203.752C130.646 186.132 127.268 171.987 126.418 161.316C125.569 150.646 126.54 134.558 129.332 113.054H104.251L59.0284 140.162L22.0399 135.982Z" fill="white"/>
</mask>
<g mask="url(#mask5_441_4588)">
<path d="M22.0399 135.982L13.0225 176.129C10.5694 187.05 17.4344 197.892 28.3558 200.345C29.8137 200.673 31.3033 200.838 32.7975 200.838H53.5096C62.9705 200.838 71.6431 195.567 75.9991 187.168L84.7431 170.31L71.8224 203.752H77.7612C84.2529 203.752 90.3896 200.789 94.4266 195.705L98.2971 190.831V195.391C98.2971 200.009 102.04 203.752 106.658 203.752C111.676 203.752 116.158 200.61 117.869 195.892L119.705 190.831L121.746 194.759C124.617 200.285 130.326 203.752 136.552 203.752C130.646 186.132 127.268 171.987 126.418 161.316C125.569 150.646 126.54 134.558 129.332 113.054H104.251L59.0284 140.162L22.0399 135.982Z" fill="#9AACD3"/>
</g>
<path d="M52.154 95.0444C53.4989 93.6996 54.5086 93.0394 55.0893 93.0394H73.4568C73.7367 93.0394 73.9635 92.8125 73.9635 92.5327C73.9635 92.2529 73.7367 92.026 73.4568 92.026H55.0893C54.1498 92.026 52.9639 92.8014 51.4375 94.3278C51.2396 94.5257 51.2396 94.8465 51.4375 95.0444C51.6353 95.2423 51.9562 95.2423 52.154 95.0444Z" fill="#7181A1"/>
<mask id="mask6_441_4588" style="mask-type:alpha" maskUnits="userSpaceOnUse" x="51" y="78" width="13" height="8">
<path d="M63.0992 80.2454H51.3809C51.9941 79.1853 53.1404 78.472 54.4532 78.472H60.0268C61.3396 78.472 62.4859 79.1853 63.0992 80.2454V80.2454ZM62.9379 84.0456C62.297 84.9645 61.2321 85.5657 60.0268 85.5657H54.4532C53.2479 85.5657 52.183 84.9645 51.5421 84.0456H62.9379Z" fill="white"/>
</mask>
<g mask="url(#mask6_441_4588)">
<path d="M63.0992 80.2454H51.3809C51.9941 79.1853 53.1404 78.472 54.4532 78.472H60.0268C61.3396 78.472 62.4859 79.1853 63.0992 80.2454V80.2454ZM62.9379 84.0456C62.297 84.9645 61.2321 85.5657 60.0268 85.5657H54.4532C53.2479 85.5657 52.183 84.9645 51.5421 84.0456H62.9379Z" fill="#7181A1"/>
</g>
<path fill-rule="evenodd" clip-rule="evenodd" d="M128.177 100.306L106.976 113.564L137.848 119.56L151.368 109.474C154.24 107.332 156.517 104.49 157.983 101.22L161.651 93.0369C162.859 90.3405 162.726 87.2322 161.29 84.6494L159.207 80.9006L159.104 80.9647C158.705 78.7157 158.231 76.0403 157.681 72.9385C157.378 71.2283 156.327 69.7426 154.816 68.8864L153.402 68.0849L150.953 66.9131L150.73 64.7273L136.173 51.8498C136.13 51.8119 136.086 51.7749 136.042 51.7388C134.289 50.3146 131.713 50.5812 130.289 52.3341C129.01 53.9085 128.94 56.0909 130.001 57.7237C128.879 57.9489 127.872 58.6807 127.34 59.7929C127.263 59.9536 127.198 60.1196 127.144 60.2895C126.404 62.6445 127.564 65.1778 129.83 66.1562L142.222 71.5061C142.973 78.9557 143.349 82.6805 143.349 82.6805C143.349 82.6805 130.884 92.0047 127.216 92.6515C124.77 93.0827 122.9 92.5155 121.606 90.9501L126.794 75.5336C126.809 75.4891 126.824 75.4444 126.837 75.3994C127.536 73.0783 126.221 70.6299 123.9 69.9307C121.473 69.1997 118.905 70.5304 118.102 72.9347C113.327 87.2394 111.174 95.7207 111.643 98.3788C112.414 102.751 106.769 113.636 106.769 113.636L128.177 100.306Z" fill="#B0BFDC"/>
<mask id="mask7_441_4588" style="mask-type:alpha" maskUnits="userSpaceOnUse" x="70" y="78" width="4" height="8">
<path d="M73.711 80.2455H70.6387C71.2519 79.1853 72.3982 78.472 73.711 78.472V80.2455ZM73.711 85.5657C72.5057 85.5657 71.4408 84.9645 70.7999 84.0457H73.711V85.5657Z" fill="white"/>
</mask>
<g mask="url(#mask7_441_4588)">
<path d="M73.711 80.2455H70.6387C71.2519 79.1853 72.3982 78.472 73.711 78.472V80.2455ZM73.711 85.5657C72.5057 85.5657 71.4408 84.9645 70.7999 84.0457H73.711V85.5657Z" fill="#7181A1"/>
</g>
<path fill-rule="evenodd" clip-rule="evenodd" d="M139.82 45.9287L122.991 45.4301C121.189 45.3767 119.633 46.6844 119.376 48.4693L113.973 85.9455L135.012 88.5708L138.31 86.2855L143.23 49.9498C143.493 48.0087 142.132 46.222 140.191 45.9592C140.068 45.9425 139.944 45.9324 139.82 45.9287Z" fill="#2B2B2B"/>
<path d="M126.547 85.3123C125.078 85.3123 123.887 84.1213 123.887 82.6522C123.887 81.183 125.078 79.9921 126.547 79.9921C128.016 79.9921 129.207 81.183 129.207 82.6522C129.207 84.1213 128.016 85.3123 126.547 85.3123ZM126.547 84.2989C127.456 84.2989 128.194 83.5617 128.194 82.6522C128.194 81.7427 127.456 81.0054 126.547 81.0054C125.637 81.0054 124.9 81.7427 124.9 82.6522C124.9 83.5617 125.637 84.2989 126.547 84.2989ZM133.606 47.5248C133.679 47.5273 133.721 47.524 133.739 47.5191C133.738 47.5195 133.737 47.5194 133.745 47.5131C133.773 47.4895 133.805 47.4415 133.832 47.3666C133.872 47.2562 133.889 47.1437 133.9 46.8392L133.901 46.8L134.206 45.558L134.944 45.7391L134.658 46.9054C134.644 47.256 134.615 47.4357 134.547 47.6253C134.476 47.8206 134.37 47.9825 134.229 48.0993C134.054 48.2433 133.872 48.2946 133.579 48.2844L128.548 48.1086C128.255 48.0984 128.077 48.0346 127.913 47.8788C127.78 47.7524 127.686 47.5835 127.629 47.3838C127.572 47.1827 127.557 46.9952 127.57 46.6182L127.571 46.579L127.876 45.3369L128.614 45.518L128.328 46.6835C128.32 46.9591 128.329 47.0676 128.36 47.1755C128.382 47.2522 128.41 47.3022 128.437 47.3277C128.444 47.3346 128.443 47.3346 128.442 47.334C128.46 47.3402 128.501 47.3465 128.575 47.3491L133.606 47.5248Z" fill="white"/>
<mask id="mask8_441_4588" style="mask-type:alpha" maskUnits="userSpaceOnUse" x="0" y="200" width="69" height="26">
<path d="M14.7586 209.102L0 225.286H68.6568L61.6813 213.372C57.1359 205.609 48.8145 200.838 39.8184 200.838H33.4783C26.3541 200.838 19.559 203.838 14.7586 209.102Z" fill="white"/>
</mask>
<g mask="url(#mask8_441_4588)">
<path d="M14.7586 209.102L0 225.286H68.6568L61.6813 213.372C57.1359 205.609 48.8145 200.838 39.8184 200.838H33.4783C26.3541 200.838 19.559 203.838 14.7586 209.102Z" fill="#DFE9FF"/>
<path d="M8.24023 213.828L9.06345 212.941C14.9899 218.502 21.2144 221.269 27.7548 221.269C33.0037 221.269 38.8295 218.738 42.6384 214.47C47.1668 209.397 48.6068 202.391 46.079 193.95L47.2343 193.6C49.8815 202.439 48.3508 209.886 43.5364 215.28C39.4951 219.808 33.3413 222.482 27.7548 222.482C20.8896 222.482 14.3788 219.588 8.24023 213.828ZM61.0807 210.888L61.5398 212.069C54.2062 214.921 51.1787 219.582 52.3075 226.193L51.0588 226.406C49.823 219.168 53.2136 213.948 61.0807 210.888Z" fill="white"/>
<path d="M10.0137 208.947C15.14 213.738 20.5828 216.148 26.3242 216.148C31.0026 216.148 36.1519 213.92 39.5347 210.144C43.5643 205.647 44.8453 199.439 42.6329 192.08L41.4736 192.426C43.5675 199.391 42.3764 205.163 38.6316 209.342C35.4818 212.858 30.6624 214.943 26.3242 214.943C20.9103 214.943 15.7555 212.661 10.842 208.068L10.0137 208.947Z" fill="white"/>
</g>
<path fill-rule="evenodd" clip-rule="evenodd" d="M74.9786 61.3712C76.1186 65.9314 74.9786 68.0848 71.1784 68.0848C68.6449 68.0848 66.1115 66.9025 63.578 64.538C64.9292 66.9025 64.1692 68.0848 61.2979 68.0848C56.991 68.0848 56.3576 65.4098 56.3576 65.1713C56.3576 64.9329 56.2022 60.8624 57.1177 59.9778C57.5882 59.5231 59.744 59.5231 63.5849 59.9778C70.4207 57.8665 74.2185 58.331 74.9786 61.3712Z" fill="#CBDBFE"/>
<path fill-rule="evenodd" clip-rule="evenodd" d="M44.4727 73.8163C45.6128 78.3766 44.4727 80.53 40.6725 80.53C38.1391 80.53 35.6056 79.3477 33.0722 76.9832C34.4233 79.3477 33.6633 80.53 30.792 80.53C26.4852 80.53 25.8518 77.855 25.8518 77.6165C25.8518 77.3781 25.6963 73.3076 26.6118 72.4229C27.0824 71.9683 29.2381 71.9683 33.0791 72.4229C39.9148 70.3117 43.7127 70.7762 44.4727 73.8163Z" fill="#CBDBFE"/>
<path fill-rule="evenodd" clip-rule="evenodd" d="M130.094 41.7368L127.181 34.8964H126.801C120.924 34.8964 116.16 30.1325 116.16 24.2559V11.9686C116.16 6.09199 120.924 1.32806 126.801 1.32806H159.736C165.612 1.32806 170.376 6.09199 170.376 11.9686V24.2559C170.376 30.1325 165.612 34.8964 159.736 34.8964H135.161L130.094 41.7368Z" fill="#DFE9FF"/>
<path fill-rule="evenodd" clip-rule="evenodd" d="M105.812 112.136C105.812 112.136 112.019 101.562 111.478 97.1554C111.149 94.4764 113.743 86.1194 119.26 72.0842C120.187 69.7253 122.822 68.5308 125.207 69.3878C127.641 70.2622 129.037 72.8174 128.458 75.3378L125.338 88.9261C124.999 90.4036 125.921 91.8763 127.399 92.2156C127.659 92.2752 127.926 92.2967 128.192 92.2794" fill="#B0BFDC"/>
<path fill-rule="evenodd" clip-rule="evenodd" d="M60.2163 75.8793L51.8274 77.385C51.6897 77.4097 51.558 77.3181 51.5333 77.1804C51.5261 77.1404 51.5286 77.0993 51.5407 77.0605L51.9872 75.6219C52.338 74.4913 53.2835 73.6462 54.4462 73.424L57.4124 72.8569L58.7642 73.5317L58.7274 72.6055L59.428 72.4716C60.2534 72.3138 61.0504 72.855 61.2082 73.6804C61.2228 73.7567 61.2315 73.8341 61.2343 73.9118L61.2584 74.5873C61.2809 75.2172 60.8368 75.7679 60.2163 75.8793ZM71.3195 72.9319C70.7849 72.7617 70.4258 72.2602 70.4371 71.6992L70.4602 70.5533C70.4624 70.4442 70.4814 70.3361 70.5164 70.2327C70.7054 69.6752 71.3105 69.3764 71.868 69.5654L71.8472 70.4916L72.6098 69.8167L73.5826 70.1464C74.6714 70.5154 75.4719 71.4493 75.6702 72.5817L75.9196 74.0066C75.9266 74.0468 75.9239 74.0881 75.9115 74.1271C75.869 74.2604 75.7266 74.3341 75.5932 74.2917L71.3195 72.9319Z" fill="#CBDBFE"/>
<path fill-rule="evenodd" clip-rule="evenodd" d="M66.5623 101.486L70.8554 99.2031L71.3744 103.337C71.4753 104.141 71.2216 104.949 70.6794 105.55C69.649 106.694 67.8869 106.785 66.7436 105.755L65.7801 104.886L65.2648 107.126C65.0128 108.222 64.3171 109.164 63.344 109.726C61.4061 110.847 58.9265 110.185 57.8056 108.247L55.7432 104.682L53.0188 110.324C52.484 111.431 51.4751 112.236 50.2764 112.512C48.0945 113.013 45.9194 111.651 45.418 109.469L44.2218 104.263L42.2343 107.343C41.569 108.374 40.4723 109.049 39.2518 109.177C37.0253 109.411 35.0308 107.795 34.797 105.569L34.291 100.753C38.4127 100.384 41.2914 100.389 42.9271 100.766C43.3549 100.865 43.716 100.994 44.0103 101.152C44.9656 100.716 46.2935 100.588 47.994 100.766C49.5316 100.928 51.6132 101.366 54.2386 102.08L53.9876 101.646L66.9994 99.5855L66.5623 101.486Z" fill="#CBDBFE"/>
<path d="M44.9621 109.625C45.5262 112.08 47.9732 113.613 50.4278 113.049C51.7764 112.739 52.9114 111.833 53.5131 110.587L55.8215 105.807L57.4049 108.544C58.6659 110.724 61.4555 111.469 63.6357 110.208C64.7304 109.575 65.513 108.516 65.7966 107.283L66.1187 105.883L66.4424 106.174C66.6502 106.362 66.9706 106.345 67.158 106.137C67.3453 105.929 67.3287 105.609 67.1208 105.422L66.1573 104.553C65.8702 104.294 65.4109 104.439 65.3242 104.816L64.809 107.056C64.5885 108.015 63.9797 108.839 63.1283 109.331C61.4326 110.312 59.2629 109.732 58.2822 108.037L56.2198 104.471C56.0162 104.119 55.5017 104.138 55.3249 104.505L52.6005 110.147C52.1325 111.116 51.2498 111.82 50.2009 112.061C48.2918 112.5 46.3885 111.308 45.9498 109.399L44.7536 104.193C44.6532 103.756 44.077 103.655 43.834 104.032L41.8466 107.112C41.2644 108.014 40.3048 108.604 39.2368 108.716C37.2887 108.921 35.5435 107.507 35.3389 105.559L34.8329 100.743C34.8037 100.465 34.5544 100.263 34.2761 100.292C33.9978 100.321 33.7958 100.57 33.8251 100.849L34.331 105.665C34.5941 108.17 36.8379 109.987 39.3427 109.724C40.7158 109.58 41.9495 108.821 42.6981 107.661L44.0347 105.59L44.9621 109.625Z" fill="#B0BFDC"/>
<path fill-rule="evenodd" clip-rule="evenodd" d="M35.4349 56.1089L23.8013 57.7945L18.7868 45.0453C18.6332 44.6547 18.192 44.4626 17.8014 44.6162C17.4886 44.7392 17.2937 45.053 17.3222 45.3879L18.6251 60.7019C18.7556 62.2354 20.1046 63.3729 21.6381 63.2424C21.6506 63.2413 21.6631 63.2402 21.6755 63.2389L35.4857 61.8764C37.2117 61.7061 38.4874 60.1911 38.3613 58.4613C38.2583 57.0482 37.0293 55.9862 35.6163 56.0892C35.5556 56.0936 35.4951 56.1002 35.4349 56.1089Z" fill="#DFE9FF"/>
<path fill-rule="evenodd" clip-rule="evenodd" d="M29.2524 99.9455L57.5091 139.022L105.42 99.9462C105.992 99.4801 106.588 99.0451 107.207 98.6431L111.614 95.778C112.963 94.9014 114.724 94.9977 115.969 96.0163C117.322 97.1234 118.258 98.6575 118.625 100.367L118.819 101.273L122.228 99.6036C123.924 98.7728 125.972 99.4743 126.803 101.17C127.269 102.122 127.268 103.236 126.799 104.187L131.023 103.466C131.668 103.356 132.322 103.319 132.975 103.357L143.262 103.957C145.078 104.063 146.464 105.621 146.359 107.437C146.347 107.632 146.318 107.826 146.273 108.015L144.972 113.422C144.851 113.928 144.601 114.394 144.248 114.776L134.669 125.126C134.068 125.775 133.425 126.385 132.746 126.952L58.2034 189.07C56.1972 190.742 53.2742 190.711 51.3044 188.996L28.2114 168.895C25.1764 166.253 23.4341 162.426 23.4341 158.403L22.2345 159.37C20.6538 160.645 18.3889 160.611 16.8471 159.289C15.2202 157.895 14.5333 155.693 15.0786 153.621L16.0871 149.789L14.8133 150.857C13.3527 152.082 11.1755 151.891 9.95043 150.431C9.94809 150.428 9.94576 150.425 9.94343 150.422C8.56309 148.766 8.12647 146.518 8.78627 144.466L10.0068 140.669L8.39803 141.741C6.90787 142.734 4.92102 142.523 3.67311 141.239C2.37637 139.904 2.03813 137.907 2.8229 136.219L19.247 100.903C20.6041 97.9848 24.0697 96.7194 26.9877 98.0764C27.8898 98.4959 28.6694 99.1394 29.2524 99.9455Z" fill="#CBDBFE"/>
<path d="M45.7706 122.147C45.6158 121.914 45.3013 121.851 45.0682 122.006C44.8351 122.16 44.7716 122.475 44.9265 122.708L55.947 139.302C56.1088 139.546 56.4428 139.602 56.6757 139.425L63.0093 134.612C63.2321 134.442 63.2755 134.124 63.1062 133.902C62.9368 133.679 62.619 133.636 62.3962 133.805L56.4924 138.292L45.7706 122.147Z" fill="#B0BFDC"/>
<path d="M131.342 184.613C131.321 184.54 131.132 183.911 131.064 183.682C130.887 183.083 130.711 182.467 130.523 181.78C129.994 179.839 129.479 177.725 128.996 175.42C127.065 166.199 126.167 156.574 126.867 147.112C126.887 146.833 126.678 146.59 126.399 146.57C126.12 146.549 125.877 146.758 125.856 147.038C125.149 156.605 126.055 166.321 128.004 175.627C128.491 177.953 129.011 180.087 129.546 182.047C129.735 182.741 129.914 183.364 130.093 183.97C130.163 184.206 130.349 184.825 130.367 184.888C130.442 185.157 130.722 185.314 130.992 185.238C131.261 185.163 131.418 184.883 131.342 184.613Z" fill="#CBDBFE"/>
<path d="M48.2931 18.1354L52.3689 29.9918C52.4599 30.2564 52.7482 30.3972 53.0128 30.3062C53.2775 30.2153 53.4183 29.927 53.3273 29.6623L49.2514 17.806C49.1604 17.5413 48.8722 17.4006 48.6075 17.4915C48.3429 17.5825 48.2021 17.8708 48.2931 18.1354Z" fill="#7181A1"/>
<mask id="mask9_441_4588" style="mask-type:alpha" maskUnits="userSpaceOnUse" x="30" y="73" width="12" height="15">
<path d="M38.8352 87.3202C33.3826 87.0939 30.6562 84.847 30.6562 80.5793C30.6562 76.1895 33.5409 73.8868 39.3101 73.6713C39.1661 73.9409 39.0597 74.3064 39.0167 74.7985C38.8736 76.434 39.6471 77.2386 41.3373 77.2123C38.4001 79.5151 36.9088 81.5818 36.8632 83.4123C36.8233 85.0175 37.525 86.4635 38.8352 87.3202Z" fill="white"/>
</mask>
<g mask="url(#mask9_441_4588)">
<path d="M38.8352 87.3202C33.3826 87.0939 30.6562 84.847 30.6562 80.5793C30.6562 76.1895 33.5409 73.8868 39.3101 73.6713C39.1661 73.9409 39.0597 74.3064 39.0167 74.7985C38.8736 76.434 39.6471 77.2386 41.3373 77.2123C38.4001 79.5151 36.9088 81.5818 36.8632 83.4123C36.8233 85.0175 37.525 86.4635 38.8352 87.3202Z" fill="#B0BFDC"/>
</g>
<path d="M150.114 65.5096C150.067 65.2337 150.252 64.972 150.528 64.9252C150.804 64.8784 151.066 65.064 151.113 65.3399L153.917 81.8518C154.329 84.2806 153.452 86.7494 151.599 88.3734L145.12 94.0538C144.91 94.2383 144.59 94.2173 144.405 94.0069C144.221 93.7964 144.242 93.4763 144.452 93.2918L150.931 87.6114C152.519 86.2194 153.271 84.1033 152.917 82.0215L150.114 65.5096ZM158.6 81.2112C158.556 80.9348 158.745 80.6753 159.021 80.6317C159.298 80.5881 159.557 80.7768 159.601 81.0532L160.341 85.7444C160.618 87.4963 160.228 89.2883 159.249 90.7672L154.456 98.0061C154.301 98.2394 153.987 98.3033 153.754 98.1488C153.52 97.9943 153.456 97.6799 153.611 97.4466L158.404 90.2077C159.243 88.9401 159.578 87.4041 159.34 85.9025L158.6 81.2112ZM142.615 70.9917C142.688 71.2617 142.529 71.5402 142.259 71.6139C141.989 71.6875 141.711 71.5283 141.637 71.2583L140.877 68.4715C140.804 68.2016 140.963 67.923 141.233 67.8494C141.503 67.7758 141.781 67.9349 141.855 68.2049L142.615 70.9917ZM121.985 69.5864C121.996 69.3067 122.231 69.0883 122.51 69.0986C122.79 69.1089 123.008 69.3439 122.998 69.6235C122.821 74.4374 120.994 77.2692 117.523 77.9557C117.249 78.01 116.982 77.8315 116.928 77.557C116.873 77.2825 117.052 77.0159 117.326 76.9616C120.273 76.3788 121.824 73.9748 121.985 69.5864Z" fill="#7181A1"/>
</svg>
