<svg width="50" height="39" viewBox="0 0 50 39" fill="none" xmlns="http://www.w3.org/2000/svg">
<path d="M42.1695 3.80346C39.0116 2.35448 35.6252 1.28694 32.0846 0.675508C32.0201 0.663708 31.9557 0.693197 31.9225 0.752178C31.4869 1.52678 31.0045 2.53732 30.6667 3.33159C26.8585 2.76146 23.0698 2.76146 19.3397 3.33159C19.0018 2.51966 18.5019 1.52678 18.0644 0.752178C18.0312 0.695165 17.9668 0.665675 17.9023 0.675508C14.3636 1.28498 10.9772 2.35253 7.81732 3.80346C7.78997 3.81526 7.76652 3.83494 7.75096 3.86048C1.32771 13.4567 -0.431887 22.817 0.431312 32.0613C0.435218 32.1065 0.460606 32.1498 0.49576 32.1773C4.73363 35.2895 8.83874 37.1788 12.8676 38.4312C12.9321 38.4509 13.0004 38.4273 13.0414 38.3742C13.9945 37.0727 14.844 35.7004 15.5724 34.2573C15.6154 34.1728 15.5744 34.0725 15.4865 34.0391C14.139 33.5279 12.8559 32.9047 11.6216 32.1969C11.524 32.1399 11.5162 32.0003 11.606 31.9334C11.8657 31.7388 12.1255 31.5363 12.3736 31.3318C12.4184 31.2945 12.4809 31.2866 12.5337 31.3102C20.6423 35.0123 29.4207 35.0123 37.4336 31.3102C37.4864 31.2847 37.5489 31.2925 37.5957 31.3299C37.8438 31.5343 38.1035 31.7388 38.3652 31.9334C38.455 32.0003 38.4492 32.1399 38.3515 32.1969C37.1173 32.9184 35.8342 33.5279 34.4847 34.0371C34.3968 34.0705 34.3578 34.1728 34.4008 34.2573C35.1448 35.6984 35.9943 37.0707 36.9298 38.3722C36.9688 38.4273 37.0391 38.4509 37.1036 38.4312C41.152 37.1788 45.2571 35.2895 49.495 32.1773C49.5321 32.1498 49.5555 32.1084 49.5594 32.0632C50.5925 21.3758 47.8291 12.0923 42.2339 3.86243C42.2203 3.83494 42.1969 3.81526 42.1695 3.80346ZM16.7833 26.4325C14.3421 26.4325 12.3306 24.1912 12.3306 21.4388C12.3306 18.6863 14.3031 16.4451 16.7833 16.4451C19.283 16.4451 21.2751 18.706 21.236 21.4388C21.236 24.1912 19.2635 26.4325 16.7833 26.4325ZM33.2465 26.4325C30.8054 26.4325 28.7939 24.1912 28.7939 21.4388C28.7939 18.6863 30.7663 16.4451 33.2465 16.4451C35.7463 16.4451 37.7383 18.706 37.6993 21.4388C37.6993 24.1912 35.7463 26.4325 33.2465 26.4325Z" fill="#5865F2"/>
</svg>
