<svg width="46" height="38" viewBox="0 0 46 38" fill="none" xmlns="http://www.w3.org/2000/svg">
<path fill-rule="evenodd" clip-rule="evenodd" d="M3.90434 16.6454C15.7905 11.4668 23.7165 8.05278 27.6823 6.40327C39.0054 1.6936 41.3583 0.875486 42.8918 0.848471C43.2291 0.842529 43.9833 0.926119 44.4718 1.32251C44.8843 1.65722 44.9977 2.10936 45.0521 2.4267C45.1064 2.74403 45.174 3.46694 45.1202 4.03179C44.5066 10.479 41.8516 26.1246 40.5008 33.3455C39.9293 36.401 38.8039 37.4254 37.7144 37.5257C35.3466 37.7436 33.5486 35.9609 31.2553 34.4576C27.6668 32.1053 25.6395 30.641 22.1561 28.3455C18.1306 25.6927 20.7402 24.2347 23.0343 21.8519C23.6347 21.2283 34.0672 11.7392 34.2691 10.8784C34.2943 10.7707 34.3178 10.3694 34.0794 10.1575C33.841 9.94561 33.4891 10.0181 33.2352 10.0757C32.8753 10.1574 27.1425 13.9465 16.0369 21.4431C14.4096 22.5605 12.9358 23.1049 11.6152 23.0764C10.1594 23.045 7.35899 22.2533 5.27719 21.5766C2.72377 20.7465 0.694363 20.3077 0.871079 18.8981C0.963123 18.1639 1.97421 17.413 3.90434 16.6454Z" fill="url(#paint0_linear_231_80)"/>
<defs>
<linearGradient id="paint0_linear_231_80" x1="23.0001" y1="0.848183" x2="23.0001" y2="37.2717" gradientUnits="userSpaceOnUse">
<stop stop-color="#2AABEE"/>
<stop offset="1" stop-color="#229ED9"/>
</linearGradient>
</defs>
</svg>
