<svg width="42" height="35" viewBox="0 0 42 35" fill="none" xmlns="http://www.w3.org/2000/svg">
<path d="M37.6042 8.86552C37.6211 9.24392 37.6211 9.60512 37.6211 9.98352C37.6381 21.456 29.0133 34.7 13.2406 34.7C8.58864 34.7 4.02154 33.3412 0.0996094 30.7956C0.778732 30.8816 1.45785 30.916 2.13698 30.916C5.991 30.916 9.74315 29.6088 12.7822 27.1836C9.11496 27.1148 5.88913 24.6896 4.76858 21.1464C6.05891 21.4044 7.3832 21.3528 8.63958 20.9916C4.64973 20.2004 1.78044 16.6399 1.76346 12.4947C1.76346 12.4603 1.76346 12.4259 1.76346 12.3915C2.95192 13.0623 4.29319 13.4407 5.65144 13.4751C1.89928 10.9295 0.727798 5.85551 3.00286 1.88229C7.36622 7.31751 13.7839 10.6027 20.677 10.9639C19.9809 7.95391 20.9317 4.7891 23.1558 2.6563C26.6024 -0.628914 32.0354 -0.456913 35.2951 3.0347C37.2137 2.6563 39.0643 1.93389 40.7451 0.919091C40.0999 2.9315 38.7587 4.6343 36.976 5.71791C38.6738 5.51151 40.3376 5.0471 41.8996 4.3591C40.7451 6.11351 39.285 7.62711 37.6042 8.86552Z" fill="#1D9BF0"/>
</svg>
